<?xml version="1.0" standalone="no"?><!DOCTYPE svg PUBLIC "-//W3C//DTD SVG 1.1//EN" "http://www.w3.org/Graphics/SVG/1.1/DTD/svg11.dtd"><svg t="1678333719521" class="icon" viewBox="0 0 1024 1024" version="1.1" xmlns="http://www.w3.org/2000/svg" p-id="37984" xmlns:xlink="http://www.w3.org/1999/xlink" width="128" height="128"><path d="M22.976 82.528h61.056a7.584 7.584 0 1 1 0 15.168H22.976a7.584 7.584 0 1 1 0-15.168z" fill="#E0E0E0" p-id="37985"></path><path d="M53.536 51.936c4.192 0 7.616 3.424 7.616 7.616v61.024a7.584 7.584 0 1 1-15.2 0V59.552c0-4.192 3.392-7.616 7.584-7.616z m436.128 60.64l29.44 7.904a7.648 7.648 0 1 1-3.968 14.784l-29.472-7.904a7.648 7.648 0 1 1 4-14.784zM544 69.696l7.904 29.504a7.648 7.648 0 1 1-14.784 4l-7.904-29.568a7.648 7.648 0 0 1 5.408-9.408 7.776 7.776 0 0 1 9.376 5.504z m64.256 25.6l-21.6 21.568a7.584 7.584 0 0 1-10.784 0 7.584 7.584 0 0 1 0-10.784l21.568-21.568a7.584 7.584 0 0 1 10.816 0 7.584 7.584 0 0 1 0 10.784z m329.824 23.872c-25.28 0-45.76 20.48-45.76 45.856a45.824 45.824 0 1 0 45.76-45.856z m0 76.352a30.56 30.56 0 1 1 0-61.152 30.56 30.56 0 0 1 0 61.12z" fill="#E0E0E0" p-id="37986"></path><path d="M916.192 387.808l-458.048-61.024v242.048l458.048 48.064z" fill="#B8B8B8" p-id="37987"></path><path d="M91.712 406.016l366.432-79.232V601.6L91.712 680.832z" fill="#737373" p-id="37988"></path><path d="M519.2 497.6l396.992-109.792v519.104l-396.992 109.792z" fill="#DCDCDC" p-id="37989"></path><path d="M91.712 406.016l427.488 91.584v516.32l-427.488-104z" fill="#E3E3E3" p-id="37990"></path><path d="M519.2 496.8L91.712 406.016 0.096 589.216l442.784 104z" fill="#E6EAF1" p-id="37991"></path><path d="M519.2 497.6l396.992-109.792 106.912 183.232-381.728 125.088z" fill="#E3E3E3" p-id="37992"></path><path d="M733.984 401.408s16.96-107.104 105.696-160.448c0 0 7.808 8.8 23.168 28.576 0 0-40.352-6.4-128.864 131.872z" fill="#737373" p-id="37993"></path><path d="M519.2 397.024s1.696-58.656 44.64-191.04c0 0 7.808 8.8 23.2 28.576 0 0-16.192 14.08-67.84 162.464z m-149.248-10.592S321.6 244.352 203.2 180.224c0 0-19.776 27.68-41.472 36.48-0.096 0 136.192 47.424 208.224 169.728z" fill="#E3E3E3" p-id="37994"></path></svg>