<?xml version="1.0" standalone="no"?><!DOCTYPE svg PUBLIC "-//W3C//DTD SVG 1.1//EN" "http://www.w3.org/Graphics/SVG/1.1/DTD/svg11.dtd"><svg t="1678333905402" class="icon" viewBox="0 0 1024 1024" version="1.1" xmlns="http://www.w3.org/2000/svg" p-id="41552" xmlns:xlink="http://www.w3.org/1999/xlink" width="128" height="128"><path d="M84.1 136.3h53.5a6.7 6.7 0 0 1 0 13.4H84.1c-3.7 0-6.7-3-6.7-6.7 0.1-3.8 3-6.7 6.7-6.7z" fill="#F4C15B" opacity=".8" p-id="41553"></path><path d="M110.9 109.5c3.7 0 6.7 3 6.7 6.7v53.5a6.7 6.7 0 0 1-13.4 0v-53.5c0-3.8 3-6.7 6.7-6.7z" fill="#F4C15B" opacity=".8" p-id="41554"></path><path d="M377.5 171l25.8 6.9c3.6 1 5.7 4.6 4.7 8.2-1 3.6-4.6 5.7-8.2 4.7l-25.8-6.9c-3.6-1-5.7-4.6-4.7-8.2 1.1-3.5 4.6-5.7 8.2-4.7z" fill="#4680E8" opacity=".8" p-id="41555"></path><path d="M425.1 133.4l6.9 25.8c1 3.6-1.1 7.2-4.7 8.2s-7.2-1.1-8.2-4.7l-6.9-25.9c-1-3.6 1.1-7.2 4.7-8.2 3.6-0.8 7.3 1.2 8.2 4.8z" fill="#8FB3FF" opacity=".8" p-id="41556"></path><path d="M481.4 155.9l-18.9 18.9c-2.6 2.6-6.8 2.6-9.4 0s-2.6-6.8 0-9.4l18.9-18.9c2.6-2.6 6.8-2.6 9.4 0 2.7 2.5 2.7 6.7 0 9.4z" fill="#ABC3EF" opacity=".8" p-id="41557"></path><path d="M885.5 168.3c-22.1 0-40 17.9-40 40.1 0 22.1 17.9 40 40 40s40.1-17.9 40.1-40-18-40.1-40.1-40.1z m0 66.9c-14.8 0-26.8-12-26.8-26.8s12-26.8 26.8-26.8 26.8 12 26.8 26.8c-0.1 14.8-12.1 26.8-26.8 26.8z" fill="#F4C15B" opacity=".8" p-id="41558"></path><path d="M866.4 403.6l-401.1-53.5V562l401.1 42.1V403.6z" fill="#4680E8" opacity=".8" p-id="41559"></path><path d="M144.3 419.5l320.9-69.3v240.7l-320.9 69.3V419.5z" fill="#8FB3FF" opacity=".8" p-id="41560"></path><path d="M518.7 499.8l347.7-96.1v454.5l-347.7 96.1V499.8z" fill="#4680E8" opacity=".8" p-id="41561"></path><path d="M144.3 419.5l374.3 80.3v452.1l-374.3-91.1V419.5z" fill="#8FB3FF" opacity=".8" p-id="41562"></path><path d="M518.7 499l-374.5-79.5L64 580l387.8 91.1L518.7 499z" fill="#ABC3EF" opacity=".8" p-id="41563"></path><path d="M732.3 92l-40.1 16.3v53.5l40.1-16.3V92z" fill="#F4C15B" opacity=".8" p-id="41564"></path><path d="M645.3 145.5l40.1 16.3v-53.5L645.3 92v53.5z m87-58.9l-43-17-44 15.2 43.9 18.6 43.1-16.8z" fill="#E5CF6E" opacity=".8" p-id="41565"></path><path d="M518.7 499.8l347.7-96.1L960 564.1 625.7 673.6l-107-173.8z" fill="#8FB3FF" opacity=".8" p-id="41566"></path><path d="M706.8 415.5s14.9-93.8 92.5-140.5c0 0 6.8 7.7 20.3 25 0.1 0-35.3-5.6-112.8 115.5z" fill="#ABC3EF" opacity=".8" p-id="41567"></path><path d="M518.7 411.7s1.5-51.4 39.2-167.3c0 0 6.8 7.7 20.3 25-0.1 0-14.3 12.3-59.5 142.3z" fill="#8FB3FF" opacity=".8" p-id="41568"></path><path d="M387.9 402.4s-42.3-124.5-146-180.6c0 0-17.3 24.3-36.3 31.9-0.1 0 119.3 41.6 182.3 148.7z" fill="#E5CF6E" opacity=".8" p-id="41569"></path></svg>