<?xml version="1.0" standalone="no"?><!DOCTYPE svg PUBLIC "-//W3C//DTD SVG 1.1//EN" "http://www.w3.org/Graphics/SVG/1.1/DTD/svg11.dtd"><svg t="1704163851318" class="icon" viewBox="0 0 1024 1024" version="1.1" xmlns="http://www.w3.org/2000/svg" p-id="4270" xmlns:xlink="http://www.w3.org/1999/xlink" width="128" height="128"><path d="M517.883 953.6c27.927 0 50.683-22.756 50.683-51.717 0-27.927-22.756-50.683-50.683-50.683s-51.717 22.756-51.717 50.683c1.034 28.961 23.79 51.717 51.717 51.717zM759.665 0h-495.33C206.371 0 160 45.511 160 102.4v819.2c0 56.889 46.371 102.4 104.335 102.4h495.33C817.629 1024 864 978.489 864 921.6V102.4C864 45.511 817.629 0 759.665 0z m1.16 972.8H274.682c-27.927 0-50.683-22.756-50.683-51.717V800h588.541v121.083c-1.034 27.927-23.79 51.717-51.717 51.717zM800 729.083H224v-614.4C224 86.756 246.232 64 273.516 64h474.947c27.284 0 49.516 22.756 49.516 50.683v614.4H800z" fill="" p-id="4271"></path></svg>