<?xml version="1.0" standalone="no"?><!DOCTYPE svg PUBLIC "-//W3C//DTD SVG 1.1//EN" "http://www.w3.org/Graphics/SVG/1.1/DTD/svg11.dtd"><svg t="1679037762430" class="icon" viewBox="0 0 1024 1024" version="1.1" xmlns="http://www.w3.org/2000/svg" p-id="7576" xmlns:xlink="http://www.w3.org/1999/xlink" width="200" height="200"><path d="M406.7 632.5c30.6 0 58 19.3 68.2 48.2h309.3v51.2H473.7c-11.1 27.3-37.6 45.2-67 45.2-29.5 0-56-17.9-67-45.2H238v-51.2h100.5c10.2-28.9 37.5-48.2 68.2-48.2zM615.5 439.8c30.6 0 57.9 19.3 68.2 48.2h100.5v51.2H682.5c-11.1 27.3-37.6 45.2-67 45.2-29.5 0-56-17.9-67-45.2H238V488h309.3c10.2-28.9 37.5-48.3 68.2-48.2zM406.7 247c30.6 0 58 19.3 68.2 48.2h309.3v51.2H473.7c-11.1 27.3-37.6 45.2-67 45.2-29.5 0-56-17.9-67-45.2H238v-51.2h100.5c10.2-28.9 37.5-48.2 68.2-48.2z" p-id="7577"></path></svg>