<?xml version="1.0" standalone="no"?><!DOCTYPE svg PUBLIC "-//W3C//DTD SVG 1.1//EN" "http://www.w3.org/Graphics/SVG/1.1/DTD/svg11.dtd"><svg t="1678940532600" class="icon" viewBox="0 0 1438 1024" version="1.1" xmlns="http://www.w3.org/2000/svg" p-id="2930" xmlns:xlink="http://www.w3.org/1999/xlink" width="280.859375" height="200"><path d="M1387.52 931.84H46.08c-25.6 0-46.08 20.48-46.08 46.08s20.48 46.08 46.08 46.08h1341.44c25.6 0 46.08-20.48 46.08-46.08s-20.48-46.08-46.08-46.08zM1433.6 40.96V30.72c0-5.12-5.12-5.12-5.12-10.24 0 0 0-5.12-5.12-5.12 0-5.12-5.12-5.12-10.24-5.12l-5.12-5.12H1126.4c-30.72-5.12-51.2 15.36-51.2 40.96s20.48 46.08 46.08 46.08h153.6l-419.84 399.36-373.76-384c-20.48-20.48-46.08-20.48-66.56 0L10.24 527.36c-15.36 20.48-15.36 46.08 0 66.56s46.08 20.48 61.44 0L450.56 204.8l373.76 384c10.24 10.24 20.48 15.36 30.72 15.36 10.24 0 20.48-5.12 30.72-10.24l460.8-440.32v174.08c0 25.6 20.48 46.08 46.08 46.08s46.08-20.48 46.08-46.08V46.08c-5.12 0-5.12-5.12-5.12-5.12z" p-id="2931"></path></svg>