<?xml version="1.0" standalone="no"?><!DOCTYPE svg PUBLIC "-//W3C//DTD SVG 1.1//EN" "http://www.w3.org/Graphics/SVG/1.1/DTD/svg11.dtd"><svg t="1679106707222" class="icon" viewBox="0 0 1024 1024" version="1.1" xmlns="http://www.w3.org/2000/svg" p-id="5155" width="200" height="200" xmlns:xlink="http://www.w3.org/1999/xlink"><path d="M214.3 363.2c-16.4 0-29.8 13.3-29.8 29.8v238.1c0 16.4 13.3 29.8 29.8 29.8s29.8-13.3 29.8-29.8V392.9c0-16.4-13.3-29.7-29.8-29.7zM333.4 363.2c-16.4 0-29.8 13.3-29.8 29.8v238.1c0 16.4 13.3 29.8 29.8 29.8s29.8-13.3 29.8-29.8V392.9c0-16.4-13.4-29.7-29.8-29.7z" p-id="5156"></path><path d="M899 378h-59.5v-59.5c0-32.8-26.7-59.5-59.5-59.5H125c-32.8 0-59.5 26.7-59.5 59.5v387c0 32.8 26.7 59.5 59.5 59.5h654.9c32.8 0 59.5-26.7 59.5-59.5V646H899c32.8 0 59.5-26.7 59.5-59.5V437.6c0-32.8-26.7-59.6-59.5-59.6zM125 705.5v-387h654.9v386.9H125z m714.4-119.1V437.6H899v148.8h-59.6z" p-id="5157"></path></svg>