<?xml version="1.0" standalone="no"?><!DOCTYPE svg PUBLIC "-//W3C//DTD SVG 1.1//EN" "http://www.w3.org/Graphics/SVG/1.1/DTD/svg11.dtd"><svg t="1704341666127" class="icon" viewBox="0 0 1024 1024" version="1.1" xmlns="http://www.w3.org/2000/svg" p-id="1696" xmlns:xlink="http://www.w3.org/1999/xlink" width="200" height="200"><path d="M704 486.4h-153.6v76.8h-307.2a25.6 25.6 0 0 1-25.6-25.6v-128.768a25.6 25.6 0 0 1 25.6-25.6h435.2a25.6 25.6 0 0 1 25.6 25.6V486.4z m-307.2 102.4v179.2h-153.6a25.6 25.6 0 0 1-25.6-25.6v-128a25.6 25.6 0 0 1 25.6-25.6h153.6z m-153.6-409.6h435.2a25.6 25.6 0 0 1 25.6 25.6v127.232a25.6 25.6 0 0 1-25.6 25.6h-435.2a25.6 25.6 0 0 1-25.6-25.6V204.8a25.6 25.6 0 0 1 25.6-25.6zM307.2 230.4a38.1184 38.1184 0 0 0-38.4 37.888A38.016 38.016 0 1 0 307.2 230.4z m0 204.032c-21.248 0.1024-38.4256 17.408-38.4 38.656a38.784 38.784 0 1 0 38.4-38.656zM307.2 640a38.4 38.4 0 1 0 0 76.8 38.4 38.4 0 0 0 0-76.8z m448 128.256v-51.2h-25.6v76.8h-128l-102.4-51.2v-25.6h-25.6v51.2h-51.2V614.4h51.2v51.456h25.6v-25.6l51.2-51.456h76.8v-25.6h-51.2v-51.2h153.6v51.2h-51.2v25.6h51.2v77.056h25.6V614.4h51.2v153.856h-51.2z"  p-id="1697"></path></svg>