<?xml version="1.0" standalone="no"?><!DOCTYPE svg PUBLIC "-//W3C//DTD SVG 1.1//EN" "http://www.w3.org/Graphics/SVG/1.1/DTD/svg11.dtd"><svg t="1704679682226" class="icon" viewBox="0 0 1024 1024" version="1.1" xmlns="http://www.w3.org/2000/svg" p-id="7814" width="128" height="128" xmlns:xlink="http://www.w3.org/1999/xlink"><path d="M346.7776 224.7168h93.1328a16.896 16.896 0 0 1 16.9472 16.896v28.8256c0 9.3696 7.5264 16.896 16.8448 16.896h56.32a16.896 16.896 0 0 0 16.896-16.896v-28.8256a16.896 16.896 0 0 1 16.9472-16.896h92.928a16.9984 16.9984 0 0 0 16.9472-16.9984v-38.4a16.9984 16.9984 0 0 0-16.9472-16.9984H346.7776a17.0496 17.0496 0 0 0-16.9472 16.9984v38.4c0 9.3696 7.68 16.9984 16.9472 16.9984z m627.3536 227.4816h-38.5024a16.9984 16.9984 0 0 0-16.9472 16.8448v16.64a16.896 16.896 0 0 1-16.8448 16.8448h-37.1712a16.9472 16.9472 0 0 1-16.9984-16.8448v-38.6048a16.896 16.896 0 0 0-16.896-16.8448h-65.6384a43.5712 43.5712 0 0 1-28.16-12.6976l-54.5792-62.464a43.4176 43.4176 0 0 0-28.2112-12.5952H338.8928a40.0384 40.0384 0 0 0-27.5456 13.1584L234.1888 451.2768a40.2432 40.2432 0 0 1-27.5456 13.2608h-17.0496a16.9984 16.9984 0 0 0-16.896 16.896v80.5888a16.896 16.896 0 0 1-16.896 16.896h-33.6384a16.9472 16.9472 0 0 1-16.9472-16.896V469.0432a16.896 16.896 0 0 0-16.896-16.8448H49.8688a16.896 16.896 0 0 0-16.9472 16.8448v309.9136c0 9.216 7.5776 16.7936 16.9472 16.7936h38.5024a16.896 16.896 0 0 0 16.896-16.7936v-92.9792c0-9.3696 7.6288-16.9984 16.9472-16.9984h33.6384c9.2672 0 16.896 7.6288 16.896 16.9984v80.4352c0 9.4208 7.6288 17.1008 16.896 17.1008h49.0496c9.2672 0 22.1696 5.376 28.5696 12.2368l84.6336 90.3168a44.8512 44.8512 0 0 0 28.4672 12.3392h334.5408a43.3152 43.3152 0 0 0 28.16-12.6976l93.44-103.8848a43.3152 43.3152 0 0 1 28.3136-12.7488h37.1712c9.2672 0 16.8448 6.144 16.8448 13.4144 0 7.4752 7.68 13.312 16.9472 13.312h38.5024a16.896 16.896 0 0 0 16.896-16.7936V469.0432a17.152 17.152 0 0 0-17.0496-16.8448z m-343.552 201.984l-154.8288 138.9568c-14.6944 13.1072-19.3024 9.6256-10.2912-8.192l21.8112-42.3936a37.4272 37.4272 0 0 0-15.2576-49.3568l-32-17.7152c-17.152-9.5744-30.0544-33.4336-28.672-53.0944l9.5232-126.1568a39.3216 39.3216 0 0 1 38.5024-35.5328h123.392c19.7632 0 28.2112 13.9264 18.7392 31.4368l-58.3168 106.3936c-9.6256 17.4592-1.1776 31.5904 18.5856 31.5904h59.5968c19.8144 0 23.9616 10.8544 9.216 24.064z m0 0" p-id="7815"></path></svg>