<?xml version="1.0" standalone="no"?><!DOCTYPE svg PUBLIC "-//W3C//DTD SVG 1.1//EN" "http://www.w3.org/Graphics/SVG/1.1/DTD/svg11.dtd"><svg t="1703759629351" class="icon" viewBox="0 0 1024 1024" version="1.1" xmlns="http://www.w3.org/2000/svg" p-id="18519" xmlns:xlink="http://www.w3.org/1999/xlink" width="200" height="200"><path d="M364.8 448l-121.6 249.6h160l-108.8 115.2s-25.6 25.6-57.6 64L89.6 1024l96-236.8c-6.4-6.4-70.4-6.4-185.6 6.4l89.6-83.2L160 640l204.8-192z m166.4-448C806.4 0 1024 217.6 1024 492.8c0 268.8-217.6 492.8-492.8 492.8-76.8 0-153.6-19.2-217.6-51.2L384 857.6c44.8 19.2 96 32 153.6 32 224 0 403.2-179.2 403.2-403.2s-179.2-403.2-403.2-403.2-403.2 179.2-403.2 403.2v44.8L57.6 614.4C51.2 576 44.8 531.2 44.8 492.8 44.8 217.6 262.4 0 531.2 0z m0 179.2c25.6 0 44.8 19.2 44.8 38.4v275.2h185.6c19.2 0 38.4 19.2 38.4 44.8 0 25.6-19.2 44.8-38.4 44.8H544h-6.4-6.4C518.4 576 512 576 505.6 569.6c-6.4-6.4-19.2-12.8-19.2-25.6V217.6c0-25.6 25.6-38.4 44.8-38.4z"  p-id="18520"></path></svg>