<?xml version="1.0" standalone="no"?><!DOCTYPE svg PUBLIC "-//W3C//DTD SVG 1.1//EN" "http://www.w3.org/Graphics/SVG/1.1/DTD/svg11.dtd"><svg t="1704336171772" class="icon" viewBox="0 0 1024 1024" version="1.1" xmlns="http://www.w3.org/2000/svg" p-id="6607" width="128" height="128" xmlns:xlink="http://www.w3.org/1999/xlink"><path d="M514.16 334h-325a34 34 0 1 1 0-68h325a34 34 0 0 1 0 68zM786.16 1015H56.84a35 35 0 1 1 0-70h729.32a35 35 0 0 1 0 70zM900.66 941c-56 0-101.5-44.46-101.5-99.11V556.1a30 30 0 0 1 60 0v285.79c0 21.57 18.61 39.11 41.5 39.11s41.5-17.54 41.5-39.11V340.82c-7.16-11.74-20.69-34-29.46-48.48l-2.38-3.91-97.84-161.91a30 30 0 1 1 51.35-31l97.81 161.87 2.35 3.87c19.24 31.7 31.82 52.38 33.65 55.33l4.52 7.27v518.03c0 54.65-45.54 99.11-101.5 99.11z" p-id="6608"></path><path d="M726.16 680h-60V436c0-49.07 43.29-89 96.5-89s96.5 39.93 96.5 89v129h-60V436c0-15.72-16.72-29-36.5-29s-36.5 13.28-36.5 29zM169.16 47h160v904h-160zM786.14 300a24 24 0 0 1-1-48l152.82-6.77a24 24 0 0 1 2.12 48L787.22 300zM586.6 566.18l-96.5 4.4 19.18-133.97-109.54 188.18 92.74-2.15-30.11 124.5L586.6 566.18z" p-id="6609"></path><path d="M731.16 984h-70V104a25 25 0 0 0-25-25h-440a25 25 0 0 0-25 25v880h-70V104a95.11 95.11 0 0 1 95-95h440a95.11 95.11 0 0 1 95 95z" p-id="6610"></path></svg>