<?xml version="1.0" standalone="no"?><!DOCTYPE svg PUBLIC "-//W3C//DTD SVG 1.1//EN" "http://www.w3.org/Graphics/SVG/1.1/DTD/svg11.dtd"><svg t="1704679979084" class="icon" viewBox="0 0 1024 1024" version="1.1" xmlns="http://www.w3.org/2000/svg" p-id="14612" width="128" height="128" xmlns:xlink="http://www.w3.org/1999/xlink"><path d="M768 1024H256A256.2816 256.2816 0 0 1 0 768V256A256.3072 256.3072 0 0 1 256 0h512a256.3072 256.3072 0 0 1 256 256v512a256.2816 256.2816 0 0 1-256 256zM358.4 307.2a25.6 25.6 0 0 0-25.6 25.6v409.6a25.6 25.6 0 0 0 25.6 25.6h307.2a25.6 25.6 0 0 0 25.6-25.6V332.8a25.6 25.6 0 0 0-25.6-25.6h-76.8v-25.6a25.6 25.6 0 0 0-25.6-25.6h-102.4a25.6 25.6 0 0 0-25.6 25.6v25.6z m128 384v-128h-76.8l128-179.2v128h76.8l-128 179.2z" p-id="14613"></path></svg>