<?xml version="1.0" standalone="no"?><!DOCTYPE svg PUBLIC "-//W3C//DTD SVG 1.1//EN" "http://www.w3.org/Graphics/SVG/1.1/DTD/svg11.dtd"><svg t="1703736714937" class="icon" viewBox="0 0 1024 1024" version="1.1" xmlns="http://www.w3.org/2000/svg" p-id="4945" xmlns:xlink="http://www.w3.org/1999/xlink" width="200" height="200"><path d="M511.6928 514.2016m-450.816 0a450.816 450.816 0 1 0 901.632 0 450.816 450.816 0 1 0-901.632 0Z" p-id="4946"></path><path d="M789.7088 733.3376h-47.1552V256.8192c0-36.8128-30.9248-66.7136-69.12-66.7136H349.9008c-38.144 0-69.12 29.8496-69.12 66.7136v476.4672h-47.1552c-16.4352 0-29.696 12.8512-29.696 28.672s13.312 28.672 29.696 28.672h556.0832c16.4352 0 29.696-12.8512 29.696-28.672 0.0512-15.7696-13.2608-28.6208-29.696-28.6208z m-217.0368-203.0592c12.032 0 22.8352 6.9632 27.4432 17.664 4.608 10.7008 2.0992 23.04-6.4 31.232l-112.1792 108.8a30.09024 30.09024 0 0 1-21.0432 8.448 30.0544 30.0544 0 0 1-20.9408-8.3456 27.9808 27.9808 0 0 1-0.1024-40.5504l61.7472-59.904h-50.432c-11.776 0-22.4768-6.7584-27.2384-17.152-4.7616-10.4448-2.6624-22.5792 5.3248-30.9248l68.8128-72.192c11.1104-11.6736 29.9008-12.3904 41.984-1.6896 12.0832 10.752 12.8512 28.8768 1.7408 40.5504l-22.9376 24.064h54.2208zM367.0528 297.3696c0-22.1696 18.688-40.192 41.6256-40.192h205.9264c22.9376 0 41.6256 18.0224 41.6256 40.192v87.9104c0 22.1696-18.688 40.192-41.6256 40.192H408.7296c-22.9376 0-41.6256-18.0224-41.6256-40.192V297.3696z" fill="#FFFFFF" p-id="4947"></path><path d="M426.496 314.5728h170.3424V368.128H426.496z" fill="#59ADF8" p-id="4948"></path></svg>