<?xml version="1.0" standalone="no"?><!DOCTYPE svg PUBLIC "-//W3C//DTD SVG 1.1//EN" "http://www.w3.org/Graphics/SVG/1.1/DTD/svg11.dtd"><svg t="1704680024615" class="icon" viewBox="0 0 1024 1024" version="1.1" xmlns="http://www.w3.org/2000/svg" p-id="16588" width="128" height="128" xmlns:xlink="http://www.w3.org/1999/xlink"><path d="M10.628571 268.228571L139.085714 53.942857c5.485714-9.028571 13.142857-16.457143 22.285715-21.6 9.142857-5.142857 19.542857-7.885714 30.057142-8h296.228572v243.771429H10.628571z m525.714286 0h477.028572L884.914286 53.942857c-5.485714-9.028571-13.142857-16.457143-22.285715-21.6-9.142857-5.142857-19.542857-7.885714-30.057142-8H536.342857v243.885714zM1024 316.914286v621.714285c0 16.114286-6.4 31.657143-17.828571 43.085715-11.428571 11.428571-26.971429 17.828571-43.085715 17.828571H60.914286c-16.114286 0-31.657143-6.4-43.085715-17.828571C6.4 970.285714 0 954.857143 0 938.628571v-621.714285h1024zM398.971429 699.314286h80.457142l-40 150.971428c-4 15.314286 15.314286 25.6 25.714286 13.714286l214.857143-244.685714c8.457143-9.714286 1.6-24.914286-11.314286-24.914286h-87.542857l46.514286-114.171429c4-9.828571-3.2-20.685714-13.828572-20.685714H478.857143c-3.085714 0-6.057143 0.914286-8.457143 2.628572-2.514286 1.714286-4.457143 4.114286-5.485714 6.971428L385.028571 678.857143c-3.771429 9.942857 3.428571 20.457143 13.942858 20.457143z" p-id="16589"></path></svg>