<?xml version="1.0" standalone="no"?><!DOCTYPE svg PUBLIC "-//W3C//DTD SVG 1.1//EN" "http://www.w3.org/Graphics/SVG/1.1/DTD/svg11.dtd"><svg t="1703476426217" class="icon" viewBox="0 0 1024 1024" version="1.1" xmlns="http://www.w3.org/2000/svg" p-id="5539" xmlns:xlink="http://www.w3.org/1999/xlink" width="200" height="200"><path d="M128.2048 302.660267h244.4288l30.583467-217.326934H221.525333c-22.186667 0-42.564267 12.424533-53.3504 32.426667L97.621333 248.354133a37.137067 37.137067 0 0 0 13.312 49.595734c5.256533 3.072 11.195733 4.7104 17.237334 4.7104M764.074667 302.660267c19.3536-0.034133 35.089067-16.384 35.054933-36.4544 0-6.212267-1.570133-12.322133-4.471467-17.749334l-70.519466-130.594133a60.859733 60.859733 0 0 0-53.3504-32.426667H489.130667l30.583466 217.2928 244.394667-0.068266zM403.217067 85.333333l85.879466 0.1024 30.583467 217.326934-147.0464-0.1024zM499.063467 724.445867v60.0064a19.217067 19.217067 0 0 1-18.8416 19.5584h-68.949334a19.217067 19.217067 0 0 1-18.807466-19.5584v-181.179734h-77.141334c-17.954133 0-25.736533-23.517867-11.605333-34.952533l131.003733-105.984a18.363733 18.363733 0 0 1 23.4496 0.2048l67.584 56.695467c43.349333-73.045333 120.9344-121.856 209.7152-121.856a237.909333 237.909333 0 0 1 88.405334 17.2032v-31.914667c0.238933-20.2752-15.4624-36.932267-35.0208-37.205333H103.389867c-19.626667 0.273067-35.328 16.896-35.1232 37.205333v460.458667c-0.341333 34.474667 26.282667 62.737067 59.4944 63.146666h577.262933c-98.474667-12.629333-178.858667-85.367467-205.960533-181.828266"  p-id="5540"></path><path d="M840.6016 648.192l-70.417067 46.830933a28.3648 28.3648 0 0 1-16.315733 5.051734 30.344533 30.344533 0 0 1-14.5408-3.754667 31.982933 31.982933 0 0 1-15.7696-27.682133v-138.069334c1.2288-17.373867 15.803733-30.378667 32.529067-29.115733 15.018667 1.1264 26.965333 13.5168 28.0576 29.115733v80.520534l23.586133-15.872a29.730133 29.730133 0 0 1 42.427733 7.202133 32.290133 32.290133 0 0 1-9.557333 45.738667m-86.7328-218.282667c-121.7536-0.034133-220.501333 102.263467-220.5696 228.5568-0.068267 126.225067 98.6112 228.6592 220.3648 228.693333 121.7536 0.068267 220.501333-102.229333 220.535467-228.488533v-0.136533c-0.1024-126.1568-98.645333-228.420267-220.330667-228.625067" p-id="5541"></path></svg>