<?xml version="1.0" standalone="no"?><!DOCTYPE svg PUBLIC "-//W3C//DTD SVG 1.1//EN" "http://www.w3.org/Graphics/SVG/1.1/DTD/svg11.dtd"><svg t="1703831981220" class="icon" viewBox="0 0 1024 1024" version="1.1" xmlns="http://www.w3.org/2000/svg" p-id="9700" xmlns:xlink="http://www.w3.org/1999/xlink" width="200" height="200"><path d="M618.666667 535.466667l-174.933334-2.133334L576 309.333333l-36.266667-21.333333-153.6 256c-4.266667 6.4-4.266667 14.933333 0 21.333333s10.666667 10.666667 19.2 10.666667l179.2 2.133333-117.333333 224 38.4 19.2 132.266667-253.866666c4.266667-6.4 4.266667-14.933333 0-21.333334-4.266667-6.4-10.666667-10.666667-19.2-10.666666z" p-id="9701"></path><path d="M782.933333 198.4l-42.666666-42.666667c-4.266667-4.266667-8.533333-6.4-14.933334-6.4h-106.666666V85.333333c0-12.8-8.533333-21.333333-21.333334-21.333333h-170.666666c-12.8 0-21.333333 8.533333-21.333334 21.333333v64h-106.666666c-6.4 0-10.666667 2.133333-14.933334 6.4l-42.666666 42.666667c-4.266667 4.266667-6.4 8.533333-6.4 14.933333v682.666667c0 6.4 2.133333 10.666667 6.4 14.933333l42.666666 42.666667c4.266667 4.266667 8.533333 6.4 14.933334 6.4h426.666666c6.4 0 10.666667-2.133333 14.933334-6.4l42.666666-42.666667c4.266667-4.266667 6.4-8.533333 6.4-14.933333V213.333333c0-6.4-2.133333-10.666667-6.4-14.933333zM448 106.666667h128v42.666666h-128V106.666667z m298.666667 780.8L716.8 917.333333H307.2L277.333333 887.466667V221.866667L307.2 192h409.6l29.866667 29.866667v665.6z" p-id="9702"></path></svg>