<?xml version="1.0" standalone="no"?><!DOCTYPE svg PUBLIC "-//W3C//DTD SVG 1.1//EN" "http://www.w3.org/Graphics/SVG/1.1/DTD/svg11.dtd"><svg t="1703833117977" class="icon" viewBox="0 0 1024 1024" version="1.1" xmlns="http://www.w3.org/2000/svg" p-id="20747" xmlns:xlink="http://www.w3.org/1999/xlink" width="200" height="200"><path d="M358.4 691.2c0-3.84-2.56-6.4-6.4-6.4-3.84 0-6.4 2.56-6.4 6.4 0 3.84 2.56 6.4 6.4 6.4 3.84 0 6.4-2.56 6.4-6.4z" p-id="20748"></path><path d="M1024 819.2c0 6.4-6.4 6.4-6.4 6.4h-64c-6.4 0-6.4-6.4-6.4-6.4v-19.2l-64-96h-25.6l-57.6 96v19.2c0 6.4-6.4 6.4-6.4 6.4h-70.4v-6.4l70.4-140.8 25.6-160 12.8-64h-38.4v44.8c0 6.4-6.4 12.8-12.8 12.8h-6.4c-6.4 0-12.8-6.4-12.8-12.8v-38.4c-38.4 25.6-89.6 44.8-134.4 51.2v6.4c-17.28 1.28-33.28 6.4-44.8 6.4h-25.6c0 19.2-12.8 32-32 32s-32-12.8-32-25.6h-19.2c-6.4 12.8-19.2 25.6-32 25.6-19.2 0-32-12.8-32-32s12.8-32 32-32c6.4 0 19.2 6.4 25.6 19.2 6.4 0 12.8 0 25.6-6.4 6.4-6.4 19.2-12.8 32-12.8 6.4 0 6.4 6.4 12.8 6.4 12.8-6.4 32-12.8 51.2-19.2 6.4 0 19.2-6.4 32-6.4v-32c-12.8 0-25.6 6.4-38.4 6.4-12.8 0-25.6 0-38.4 6.4 0 12.8-12.8 19.2-25.6 19.2-6.4 0-19.2-6.4-19.2-12.8h-32c-6.4 6.4-12.8 12.8-25.6 12.8-19.2 0-32-12.8-32-32s12.8-32 32-32c12.8 0 19.2 12.8 25.6 19.2h25.6c0-12.8 12.8-19.2 25.6-19.2s25.6 6.4 32 12.8h19.2c12.8 0 32 0 51.2-6.4v-25.6c0-6.4-6.4-12.8-12.8-12.8H192l-12.8 12.8v64H25.6c-6.4 0-12.8 6.4-12.8 12.8v275.2c0 6.4 0 12.8 6.4 12.8h32V492.8c0-12.8 6.4-25.6 19.2-25.6h108.8v288c0 6.4 6.4 12.8 12.8 12.8h44.8V595.2c0-6.4 12.8-19.2 19.2-19.2h102.4c6.4 0 12.8 6.4 12.8 12.8 6.4 0 6.4 6.4 6.4 12.8v172.8h230.4c6.4 0 12.8-6.4 12.8-12.8h6.4v6.4c0 12.8-6.4 19.2-19.2 19.2H192c-6.4 0-19.2-12.8-19.2-19.2H19.2c-12.8 0-19.2-12.8-19.2-25.6V467.2c0-12.8 6.4-25.6 19.2-19.2h153.6v-57.6c0-12.8 6.4-19.2 19.2-19.2h422.4c6.4 0 19.2 6.4 19.2 19.2v19.2c51.2-12.8 96-32 140.8-70.4V320l96-70.4v-44.8c0-6.4 0-6.4 6.4-6.4s6.4 6.4 6.4 6.4v38.4h6.4L985.6 320v51.2c0 6.4-6.4 12.8-12.8 12.8h-6.4c-6.4 0-12.8 0-6.4-12.8v-44.8h-38.4v70.4l70.4 38.4v6.4c0 6.4-6.4 6.4-6.4 6.4v38.4c0 6.4-6.4 12.8-12.8 12.8s-12.8 0-12.8-12.8V448h-38.4v70.4l19.2 160zM70.4 480c-6.4 0-12.8 6.4-12.8 12.8v262.4h115.2V480zM896 684.8l-12.8-12.8h-32l-6.4 12.8 12.8 12.8h25.6z m-89.6-6.4h25.6l6.4-12.8-25.6-32z m12.8-70.4l38.4-12.8-32-12.8zM633.6 499.2c44.8-12.8 96-25.6 134.4-51.2v-6.4l70.4-44.8V326.4h-44.8v44.8c0 6.4 0 12.8-6.4 12.8v6.4c-38.4 32-96 64-153.6 83.2z m268.8 128l-38.4-19.2-44.8 19.2 32 32h32z m12.8-96l-32 19.2 32 25.6z m-19.2 0h-44.8l19.2 12.8z m-70.4 38.4l32-19.2-25.6-19.2z m12.8 6.4l32 19.2 32-12.8-32-25.6z m70.4 32v-25.6l-25.6 12.8zM896 518.4l-25.6-25.6-25.6 25.6z m6.4-57.6l-19.2 19.2 25.6 25.6z m-6.4-6.4h-38.4l19.2 19.2z m-51.2-51.2v38.4h57.6v-38.4z m-6.4 57.6L832 512l32-32z m70.4 217.6h19.2l-6.4-51.2-25.6 32z m6.4-268.8v32h51.2z m-12.8-76.8h-51.2v64h51.2zM960 320l-44.8-32V320z m-108.8-44.8V320h51.2v-44.8l-25.6-19.2z m-12.8 44.8v-32l-44.8 32zM633.6 422.4v6.4c57.6-6.4 108.8-25.6 147.2-44.8-6.4 0-6.4 0-6.4-6.4v-25.6c-44.8 32-96 57.6-140.8 70.4z m0 19.2v25.6c38.4-19.2 83.2-38.4 121.6-64-32 19.2-70.4 25.6-121.6 38.4z m-6.4 320V518.4h6.4v243.2zM550.4 435.2c19.2 6.4 44.8 0 70.4-6.4v-6.4c-19.2 6.4-38.4 12.8-51.2 12.8h-19.2zM364.8 588.8H256l-6.4 6.4v179.2h115.2V588.8z m102.4-147.2s0 6.4 0 0c6.4 6.4 12.8 6.4 25.6 6.4v-6.4h-25.6zM544 512h25.6c19.2-6.4 32-6.4 51.2-6.4v-25.6c-25.6 12.8-51.2 19.2-76.8 25.6z m294.4-102.4l-51.2 32h51.2z m12.8 288l-12.8-12.8h-32l-57.6 115.2h44.8z m108.8 108.8h38.4l-70.4-115.2h-25.6l-6.4 12.8z" p-id="20749"></path></svg>