<?xml version="1.0" standalone="no"?><!DOCTYPE svg PUBLIC "-//W3C//DTD SVG 1.1//EN" "http://www.w3.org/Graphics/SVG/1.1/DTD/svg11.dtd"><svg t="1703831685608" class="icon" viewBox="0 0 1024 1024" version="1.1" xmlns="http://www.w3.org/2000/svg" p-id="5513" xmlns:xlink="http://www.w3.org/1999/xlink" width="200" height="200"><path d="M247.4 920.6H66.3c-28.1 0-51-22.9-51-51V244.5c0-28.1 22.9-51 51-51h181.2c28.1 0 51 22.9 51 51v625.1c0 28.1-22.9 51-51.1 51zM66.3 218.5c-14.4 0-26 11.7-26 26v625.1c0 14.3 11.7 26 26 26h181.2c14.4 0 26-11.7 26-26V244.5c0-14.4-11.7-26-26-26H66.3z" p-id="5514"></path><path d="M159.1 789.2h-15.8c-28.1 0-51-22.9-51-51V378.1c0-28.1 22.9-51 51-51h15.8c28.1 0 51 22.9 51 51v360.1c0 28.1-22.9 51-51 51z m-15.8-437.1c-14.4 0-26 11.7-26 26v360.1c0 14.3 11.7 26 26 26h15.8c14.4 0 26-11.7 26-26V378.1c0-14.4-11.7-26-26-26h-15.8zM942.8 247.9h-539c-28.1 0-51-22.9-51-51v-56.6c0-28.1 22.9-51 51-51h539c28.2 0 51 22.9 51 51v56.6c0 28.1-22.9 51-51 51zM403.7 114.3c-14.4 0-26 11.7-26 26v56.6c0 14.4 11.7 26 26 26h539c14.3 0 26-11.7 26-26v-56.6c0-14.4-11.7-26-26-26h-539zM949.6 415.5H399.2c-28.1 0-51-22.9-51-51v-61.1c0-28.1 22.9-51 51-51h550.3c28.2 0 51 22.9 51 51v61.1c0.1 28.1-22.8 51-50.9 51zM399.2 277.4c-14.4 0-26 11.7-26 26v61.1c0 14.4 11.7 26 26 26h550.3c14.3 0 26-11.7 26-26v-61.1c0-14.4-11.7-26-26-26H399.2z" p-id="5515"></path><path d="M947.3 608H394.7c-28.1 0-51-22.9-51-51v-97.4c0-28.1 22.9-51 51-51h552.6c28.2 0 51 22.9 51 51V557c0 28.1-22.9 51-51 51zM394.7 433.6c-14.4 0-26 11.7-26 26V557c0 14.3 11.7 26 26 26h552.6c14.3 0 26-11.7 26-26v-97.4c0-14.4-11.7-26-26-26H394.7zM945 757.5H399.2c-28.1 0-51-22.9-51-51v-43c0-28.2 22.9-51 51-51H945c28.1 0 51 22.9 51 51v43c0 28.1-22.8 51-51 51zM399.2 637.4c-14.4 0-26 11.7-26 26v43c0 14.3 11.7 26 26 26H945c14.3 0 26-11.7 26-26v-43c0-14.3-11.6-26-26-26H399.2zM965.4 920.6H374.3c-28.1 0-51-22.9-51-51V813c0-28.2 22.9-51 51-51h591.1c28.2 0 51 22.9 51 51v56.6c0 28.1-22.8 51-51 51zM374.3 787c-14.4 0-26 11.7-26 26v56.6c0 14.3 11.7 26 26 26h591.1c14.3 0 26-11.7 26-26V813c0-14.3-11.7-26-26-26H374.3zM477.3 216.2c-26.3 0-47.6-21.3-47.6-47.6s21.4-47.7 47.6-47.7 47.6 21.4 47.6 47.7c0.1 26.2-21.3 47.6-47.6 47.6z m0-70.2c-12.5 0-22.6 10.1-22.6 22.6 0 12.5 10.1 22.6 22.6 22.6s22.6-10.1 22.6-22.6c0-12.5-10.1-22.6-22.6-22.6zM577 216.2c-26.2 0-47.6-21.3-47.6-47.6s21.3-47.7 47.6-47.7 47.6 21.4 47.6 47.7c0 26.2-21.4 47.6-47.6 47.6z m0-70.2c-12.5 0-22.6 10.1-22.6 22.6 0 12.5 10.1 22.6 22.6 22.6 12.5 0 22.6-10.1 22.6-22.6 0-12.5-10.1-22.6-22.6-22.6zM676.6 216.2c-26.2 0-47.6-21.3-47.6-47.6s21.4-47.7 47.6-47.7c26.3 0 47.7 21.4 47.7 47.7 0 26.2-21.4 47.6-47.7 47.6z m0-70.2c-12.4 0-22.6 10.1-22.6 22.6 0 12.5 10.1 22.6 22.6 22.6 12.5 0 22.6-10.1 22.6-22.6 0.1-12.5-10.1-22.6-22.6-22.6zM776.3 216.2c-26.3 0-47.6-21.3-47.6-47.6s21.4-47.7 47.6-47.7c26.3 0 47.6 21.4 47.6 47.7 0 26.2-21.3 47.6-47.6 47.6z m0-70.2c-12.5 0-22.6 10.1-22.6 22.6 0 12.5 10.1 22.6 22.6 22.6 12.5 0 22.6-10.1 22.6-22.6 0-12.5-10.1-22.6-22.6-22.6zM876 216.2c-26.3 0-47.6-21.3-47.6-47.6s21.4-47.7 47.6-47.7c26.3 0 47.6 21.4 47.6 47.7 0 26.2-21.4 47.6-47.6 47.6z m0-70.2c-12.5 0-22.6 10.1-22.6 22.6 0 12.5 10.1 22.6 22.6 22.6s22.6-10.1 22.6-22.6c0-12.5-10.2-22.6-22.6-22.6zM477.3 381.5c-26.3 0-47.6-21.3-47.6-47.6s21.4-47.6 47.6-47.6 47.6 21.3 47.6 47.6-21.3 47.6-47.6 47.6z m0-70.2c-12.5 0-22.6 10.1-22.6 22.6s10.1 22.6 22.6 22.6 22.6-10.1 22.6-22.6-10.1-22.6-22.6-22.6zM577 381.5c-26.2 0-47.6-21.3-47.6-47.6s21.3-47.6 47.6-47.6 47.6 21.3 47.6 47.6-21.4 47.6-47.6 47.6z m0-70.2c-12.5 0-22.6 10.1-22.6 22.6s10.1 22.6 22.6 22.6c12.5 0 22.6-10.1 22.6-22.6s-10.1-22.6-22.6-22.6zM676.6 381.5c-26.2 0-47.6-21.3-47.6-47.6s21.4-47.6 47.6-47.6c26.3 0 47.7 21.3 47.7 47.6s-21.4 47.6-47.7 47.6z m0-70.2c-12.4 0-22.6 10.1-22.6 22.6s10.1 22.6 22.6 22.6c12.5 0 22.6-10.1 22.6-22.6s-10.1-22.6-22.6-22.6zM776.3 381.5c-26.3 0-47.6-21.3-47.6-47.6s21.4-47.6 47.6-47.6c26.3 0 47.6 21.3 47.6 47.6s-21.3 47.6-47.6 47.6z m0-70.2c-12.5 0-22.6 10.1-22.6 22.6s10.1 22.6 22.6 22.6c12.5 0 22.6-10.1 22.6-22.6s-10.1-22.6-22.6-22.6z" p-id="5516"></path><path d="M484.1 551.4c-26.3 0-47.6-21.3-47.6-47.6 0-26.2 21.4-47.6 47.6-47.6s47.6 21.3 47.6 47.6c0 26.2-21.3 47.6-47.6 47.6z m0-70.2c-12.5 0-22.6 10.1-22.6 22.6 0 12.5 10.1 22.6 22.6 22.6s22.6-10.1 22.6-22.6c0-12.5-10.1-22.6-22.6-22.6zM676.6 551.4c-26.2 0-47.6-21.3-47.6-47.6 0-26.2 21.4-47.6 47.6-47.6 26.3 0 47.7 21.3 47.7 47.6 0 26.2-21.4 47.6-47.7 47.6z m0-70.2c-12.4 0-22.6 10.1-22.6 22.6 0 12.5 10.1 22.6 22.6 22.6 12.5 0 22.6-10.1 22.6-22.6 0.1-12.5-10.1-22.6-22.6-22.6zM872.5 551.4c-26.2 0-47.6-21.3-47.6-47.6 0-26.2 21.4-47.6 47.6-47.6 26.3 0 47.7 21.3 47.7 47.6 0 26.2-21.4 47.6-47.7 47.6z m0-70.2c-12.4 0-22.6 10.1-22.6 22.6 0 12.5 10.1 22.6 22.6 22.6 12.5 0 22.6-10.1 22.6-22.6 0.1-12.5-10.1-22.6-22.6-22.6zM876 381.5c-26.3 0-47.6-21.3-47.6-47.6s21.4-47.6 47.6-47.6c26.3 0 47.6 21.3 47.6 47.6s-21.4 47.6-47.6 47.6z m0-70.2c-12.5 0-22.6 10.1-22.6 22.6s10.1 22.6 22.6 22.6 22.6-10.1 22.6-22.6-10.2-22.6-22.6-22.6zM477.3 739.4c-26.3 0-47.6-21.4-47.6-47.6 0-26.3 21.4-47.7 47.6-47.7s47.6 21.4 47.6 47.7c0.1 26.2-21.3 47.6-47.6 47.6z m0-70.3c-12.5 0-22.6 10.2-22.6 22.6 0 12.4 10.1 22.6 22.6 22.6s22.6-10.1 22.6-22.6c0-12.4-10.1-22.6-22.6-22.6zM577 739.4c-26.2 0-47.6-21.4-47.6-47.6 0-26.3 21.3-47.7 47.6-47.7s47.6 21.4 47.6 47.7c0 26.2-21.4 47.6-47.6 47.6z m0-70.3c-12.5 0-22.6 10.2-22.6 22.6 0 12.4 10.1 22.6 22.6 22.6 12.5 0 22.6-10.1 22.6-22.6 0-12.4-10.1-22.6-22.6-22.6zM676.6 739.4c-26.2 0-47.6-21.4-47.6-47.6 0-26.3 21.4-47.7 47.6-47.7 26.3 0 47.7 21.4 47.7 47.7 0 26.2-21.4 47.6-47.7 47.6z m0-70.3c-12.4 0-22.6 10.2-22.6 22.6 0 12.4 10.1 22.6 22.6 22.6 12.5 0 22.6-10.1 22.6-22.6 0.1-12.4-10.1-22.6-22.6-22.6zM776.3 739.4c-26.3 0-47.6-21.4-47.6-47.6 0-26.3 21.4-47.7 47.6-47.7 26.3 0 47.6 21.4 47.6 47.7 0 26.2-21.3 47.6-47.6 47.6z m0-70.3c-12.5 0-22.6 10.2-22.6 22.6 0 12.4 10.1 22.6 22.6 22.6 12.5 0 22.6-10.1 22.6-22.6 0-12.4-10.1-22.6-22.6-22.6zM876 739.4c-26.3 0-47.6-21.4-47.6-47.6 0-26.3 21.4-47.7 47.6-47.7 26.3 0 47.6 21.4 47.6 47.7 0 26.2-21.4 47.6-47.6 47.6z m0-70.3c-12.5 0-22.6 10.2-22.6 22.6 0 12.4 10.1 22.6 22.6 22.6s22.6-10.1 22.6-22.6c0-12.4-10.2-22.6-22.6-22.6z" p-id="5517"></path></svg>