<?xml version="1.0" standalone="no"?><!DOCTYPE svg PUBLIC "-//W3C//DTD SVG 1.1//EN" "http://www.w3.org/Graphics/SVG/1.1/DTD/svg11.dtd"><svg t="1703572995000" class="icon" viewBox="0 0 1024 1024" version="1.1" xmlns="http://www.w3.org/2000/svg" p-id="16517" xmlns:xlink="http://www.w3.org/1999/xlink" width="200" height="200"><path d="M683.52 986.88l-117.76-117.76c-30.08-30.08-78.08-30.08-108.16 0L326.4 1000.96c49.92 14.72 103.04 23.04 158.08 23.04 69.76 0 137.6-12.8 199.04-37.12z" p-id="16518"></path><path d="M512 0C238.08 0 16.64 222.08 16.64 495.36c0 195.84 113.92 365.44 279.04 446.08l162.56-162.56c30.08-30.08 78.08-30.08 108.16 0l162.56 162.56c165.12-80.64 279.04-249.6 279.04-446.08C1007.36 222.08 785.92 0 512 0z m156.16 697.6c-3.2 1.28-6.4 1.92-8.96 1.92-8.96 0-17.92-5.12-21.76-14.08l-39.68-92.16H461.44L422.4 685.44c-5.12 12.16-19.2 17.92-30.72 12.8-12.16-5.12-17.92-19.2-12.8-30.72l124.16-293.76 0.64-1.28c5.12-8.96 14.72-14.72 24.96-14.72s19.84 5.76 24.96 14.72l0.64 1.28 0.64 1.28 124.8 292.48c5.76 11.52 0 24.96-11.52 30.08z m105.6-355.84c-8.32 5.12-19.84 2.56-24.96-6.4C702.72 260.48 620.16 211.2 526.08 211.2c-93.44 0-175.36 49.28-221.44 123.52-5.12 8.96-17.28 10.88-24.96 5.12-8.32-5.12-10.88-16-5.12-24.32C326.4 231.68 419.84 175.36 526.08 175.36c106.88 0 200.32 56.96 252.8 141.44 5.76 8.32 3.84 19.2-5.12 24.96z" p-id="16519"></path><path d="M577.92 545.92l-48.64-113.28-48 113.28z" p-id="16520"></path></svg>