<?xml version="1.0" standalone="no"?><!DOCTYPE svg PUBLIC "-//W3C//DTD SVG 1.1//EN" "http://www.w3.org/Graphics/SVG/1.1/DTD/svg11.dtd"><svg t="1704679494982" class="icon" viewBox="0 0 1165 1024" version="1.1" xmlns="http://www.w3.org/2000/svg" p-id="6587" width="145.625" height="128" xmlns:xlink="http://www.w3.org/1999/xlink"><path d="M768 943.304348h-584.347826c-16.695652 0-30.608696 16.695652-30.608696 38.956522s13.913043 38.956522 30.608696 38.956521h584.347826c16.695652 0 30.608696-16.695652 30.608696-38.956521s-13.913043-38.956522-30.608696-38.956522zM620.521739 692.869565H114.086957c-22.26087 0-38.956522-19.478261-38.956522-41.73913V119.652174c0-22.26087 16.695652-41.73913 38.956522-41.739131h865.391304c22.26087 0 38.956522 19.478261 38.956522 41.739131v267.130435c27.826087 8.347826 52.869565 22.26087 75.130434 38.956521v-306.086956c0-66.782609-50.086957-119.652174-114.086956-119.652174H114.086957C50.086957 0 0 52.869565 0 119.652174v531.478261c0 66.782609 50.086957 119.652174 114.086957 119.652174h517.565217c-8.347826-25.043478-11.130435-50.086957-11.130435-77.913044z"  p-id="6588"></path><path d="M667.826087 320h-114.086957l64-147.478261h-94.608695l-100.173913 228.173913h94.608695l-64 197.565218zM923.826087 431.304348c-133.565217 0-242.086957 108.521739-242.086957 242.086956s108.521739 242.086957 242.086957 242.086957 242.086957-108.521739 242.086956-242.086957-108.521739-242.086957-242.086956-242.086956z m0 406.260869c-89.043478 0-164.173913-72.347826-164.173913-164.173913s72.347826-164.173913 164.173913-164.173913c89.043478 0 164.173913 72.347826 164.173913 164.173913s-75.130435 164.173913-164.173913 164.173913z" 
 p-id="6589"></path></svg>