<?xml version="1.0" standalone="no"?><!DOCTYPE svg PUBLIC "-//W3C//DTD SVG 1.1//EN" "http://www.w3.org/Graphics/SVG/1.1/DTD/svg11.dtd"><svg t="1703833612458" class="icon" viewBox="0 0 1024 1024" version="1.1" xmlns="http://www.w3.org/2000/svg" p-id="32778" xmlns:xlink="http://www.w3.org/1999/xlink" width="200" height="200"><path d="M218.1 921.5l589 5.7c24.9 0 45.1-20.1 45.3-44.9V377.7L585.6 105l-367.5 0.8c-25 0-45.3 20.3-45.3 45.3v725c0 25.1 20.3 45.4 45.3 45.4z m413.4-700.6l55.7 55.7 55.7 55.7H631.5V220.9z m-413.4-69.7l353.4-1 14.8 25.4v156.8c0 25 20.3 45.3 45.3 45.3h156.8l18.8 18.8v485.3l-589-5.7V151.2z" p-id="32779"></path><path d="M308.7 292.8h135.9v45.3H308.7z" p-id="32780"></path><path d="M616.5 516.5H553v-38.8c0-6.7-5.4-12.1-12.1-12.1h-76c-6.7 0-12.1 5.4-12.1 12.1v38.8h-63.5c-6.7 0-12.1 5.4-12.1 12.1v278.9c0 6.7 5.4 12.1 12.1 12.1h227.2c6.7 0 12.1-5.4 12.1-12.1V528.6c0.1-6.7-5.4-12.1-12.1-12.1z m-139.4-26.8h51.7v26.7h-51.7v-26.7z m127.3 305.6h-203V540.7h203v254.6z m0 0" p-id="32781"></path><path d="M567 718.5H438.9c-6.7 0-12.1 5.4-12.1 12.1 0 6.7 5.4 12.1 12.1 12.1H567c6.7 0 12.1-5.4 12.1-12.1 0-6.6-5.4-12.1-12.1-12.1z m0 0M567 668.2H438.9c-6.7 0-12.1 5.4-12.1 12.1 0 6.7 5.4 12.1 12.1 12.1H567c6.7 0 12.1-5.4 12.1-12.1 0-6.7-5.4-12.1-12.1-12.1z m0 0M426.8 630c0 6.7 5.4 12.1 12.1 12.1H567c6.7 0 12.1-5.4 12.1-12.1 0-6.7-5.4-12.1-12.1-12.1H438.9c-6.7-0.1-12.1 5.4-12.1 12.1z m0 0" p-id="32782"></path></svg>