<?xml version="1.0" standalone="no"?><!DOCTYPE svg PUBLIC "-//W3C//DTD SVG 1.1//EN" "http://www.w3.org/Graphics/SVG/1.1/DTD/svg11.dtd"><svg t="1704960893747" class="icon" viewBox="0 0 1024 1024" version="1.1" xmlns="http://www.w3.org/2000/svg" p-id="24303" xmlns:xlink="http://www.w3.org/1999/xlink" width="48" height="48"><path d="M516.72 974.384c-255.84 0-464-208.16-464-464s208.16-464 464-464 464 208.16 464 464a16 16 0 1 1-32 0c0-238.208-193.792-432-432-432s-432 193.792-432 432 193.792 432 432 432a16 16 0 1 1 0 32z" p-id="24304"></path><path d="M420.72 838.384a15.984 15.984 0 0 1-15.6-19.552l57.376-252.448h-153.76a16 16 0 0 1-12.944-25.408l256-352c4.48-6.144 12.704-8.272 19.552-5.152a15.984 15.984 0 0 1 8.992 18.112l-57.376 252.448h153.76a16 16 0 0 1 12.944 25.408l-256 352a16 16 0 0 1-12.944 6.592z m-80.576-304h142.384a16 16 0 0 1 15.6 19.552l-44.56 196.08L645.28 486.384h-142.384a16 16 0 0 1-15.6-19.552l44.56-196.08-191.712 263.632zM698.672 918.32a16 16 0 0 1-11.12-4.496c-5.328-5.152-11.2-10.272-17.488-15.2a16 16 0 0 1-1.872-23.44c15.536-16.832 26.128-37.2 31.456-60.576 3.84-17.968 5.824-43.872 5.824-76.8v-93.936a16 16 0 0 1 16-16h181.36a16 16 0 0 1 16 16v211.76c0 35.696-19.776 56.176-54.288 56.176-10.768 0-24.624-0.176-41.616-0.528a16.032 16.032 0 0 1-15.504-13.792 355.616 355.616 0 0 0-3.888-21.776 15.968 15.968 0 0 1 3.616-13.728c3.264-3.776 8.144-5.68 13.104-5.472 16.064 1.056 28.96 1.6 38.32 1.6 3.92 0 5.248-0.784 5.36-0.848-0.016-0.016 0.64-1.2 0.64-4.592v-29.072h-111.328c-6.176 32.368-20.336 62.224-42.208 88.896a15.92 15.92 0 0 1-11.456 5.824h-0.912z m60.144-146.56h105.76v-20.128h-105.008c-0.16 6.816-0.416 13.536-0.752 20.128z m0.928-71.952h104.848v-19.584h-104.848v19.584z"  p-id="24305"></path></svg>