<?xml version="1.0" standalone="no"?><!DOCTYPE svg PUBLIC "-//W3C//DTD SVG 1.1//EN" "http://www.w3.org/Graphics/SVG/1.1/DTD/svg11.dtd"><svg t="1703760013030" class="icon" viewBox="0 0 1024 1024" version="1.1" xmlns="http://www.w3.org/2000/svg" p-id="24294" xmlns:xlink="http://www.w3.org/1999/xlink" width="200" height="200"><path d="M554.666667 341.333333v128h85.333333l-128 213.333334V554.666667h-85.333333l128-213.333334z m384 170.666667c0 234.666667-192 426.666667-426.666667 426.666667S85.333333 746.666667 85.333333 512 277.333333 85.333333 512 85.333333v128c-166.4 0-298.666667 132.266667-298.666667 298.666667s132.266667 298.666667 298.666667 298.666667 298.666667-132.266667 298.666667-298.666667h128z m-46.933334 42.666667h-42.666666c-21.333333 166.4-166.4 298.666667-337.066667 298.666666-187.733333 0-341.333333-153.6-341.333333-341.333333C170.666667 337.066667 302.933333 196.266667 469.333333 174.933333v-42.666666C277.333333 153.6 128 315.733333 128 512c0 213.333333 170.666667 384 384 384 196.266667 0 358.4-149.333333 379.733333-341.333333z m-89.6-106.666667l123.733334-29.866667C891.733333 256 763.733333 128 601.6 93.866667l-29.866667 123.733333c119.466667 29.866667 204.8 115.2 230.4 230.4z" fill="" p-id="24295"></path></svg>