<?xml version="1.0" standalone="no"?><!DOCTYPE svg PUBLIC "-//W3C//DTD SVG 1.1//EN" "http://www.w3.org/Graphics/SVG/1.1/DTD/svg11.dtd"><svg t="1703736425711" class="icon" viewBox="0 0 1024 1024" version="1.1" xmlns="http://www.w3.org/2000/svg" p-id="21619" xmlns:xlink="http://www.w3.org/1999/xlink" width="200" height="200"><path d="M783.345778 938.695111a142.222222 142.222222 0 1 1 141.098666-142.222222c0.227556 78.193778-62.904889 141.809778-141.098666 142.222222z m-76.714667-147.911111l-20.963555 17.536 81.976888 86.584889a524.216889 524.216889 0 0 1 113.379556-163.000889l-5.048889-12.046222a533.859556 533.859556 0 0 0-121.927111 109.511111L706.616889 790.755556l0.014222 0.028444z m-79.857778 104.106667H156.444444a56.888889 56.888889 0 0 1-56.888888-56.888889V186.012444a56.888889 56.888889 0 0 1 56.888888-56.888888h116.778667v30.634666a56.96 56.96 0 0 0 56.888889 56.888889h276.949333a56.96 56.96 0 0 0 56.888889-56.888889V129.109333H780.8a56.888889 56.888889 0 0 1 56.888889 56.888889v432.696889a183.751111 183.751111 0 0 0-141.098667 13.653333v-260.266666a56.96 56.96 0 0 0-56.888889-56.888889h-149.333333v98.460444h32.568889l-54.257778 54.698667-54.243555-54.698667h32.568888v-98.460444h-149.333333a56.96 56.96 0 0 0-56.888889 56.888889v367.502222a56.888889 56.888889 0 0 0 56.888889 56.888889h301.283556a186.567111 186.567111 0 0 0 27.932444 98.417778h-0.113778z m-82.375111-142.222223h-151.608889a21.873778 21.873778 0 1 1 0-43.733333h151.608889a21.873778 21.873778 0 0 1 0 43.747556z m43.420445-65.621333H349.368889a21.888 21.888 0 1 1 0-43.761778h97.507555v-76.586666h-32.568888l54.272-54.670223 54.272 54.698667h-32.568889v76.586667h97.521777a21.888 21.888 0 0 1 0 43.761778l0.014223-0.028445z m-21.888-514.190222H371.2A43.761778 43.761778 0 1 1 371.2 85.333333h194.673778a43.761778 43.761778 0 1 1 0 87.509334h0.056889z"  p-id="21620"></path></svg>