<?xml version="1.0" standalone="no"?><!DOCTYPE svg PUBLIC "-//W3C//DTD SVG 1.1//EN" "http://www.w3.org/Graphics/SVG/1.1/DTD/svg11.dtd"><svg t="1703573315648" class="icon" viewBox="0 0 1024 1024" version="1.1" xmlns="http://www.w3.org/2000/svg" p-id="25456" xmlns:xlink="http://www.w3.org/1999/xlink" width="200" height="200"><path d="M409.6 639.857778H259.697778c-9.272889 0-17.308444-3.370667-24.120889-10.126222-6.584889-6.556444-9.884444-14.648889-9.884445-24.277334v-280.604444c0-9.628444 3.299556-17.720889 9.884445-24.277334 7.011556-6.968889 15.047111-10.439111 24.120889-10.439111h147.768889v30.72h-119.950223v288.284445h122.112v30.72z m208.668444-34.403556c0 9.628444-3.285333 17.720889-9.884444 24.277334-6.798222 6.755556-14.833778 10.126222-24.106667 10.126222h-98.929777a33.422222 33.422222 0 0 1-24.419556-10.126222 31.914667 31.914667 0 0 1-10.524444-24.277334v-140.458666c0-9.628444 3.512889-17.706667 10.524444-24.263112a33.422222 33.422222 0 0 1 24.419556-10.140444h98.929777c9.272889 0 17.308444 3.384889 24.106667 10.140444 6.599111 6.542222 9.884444 14.648889 9.884444 24.263112v140.458666z m-110.663111-144.142222V609.137778h53.475556V461.312h-53.475556z m253.482667 87.281778h-76.344889c-9.685333 0-17.777778-2.915556-24.277333-8.760889-6.485333-5.831111-9.728-13.368889-9.728-22.570667v-55.324444c0-9.230222 3.242667-16.753778 9.728-22.584889 6.499556-5.831111 14.592-8.760889 24.277333-8.760889h130.133333v30.72h-106.951111v56.561778h76.359111c9.671111 0 17.777778 2.915556 24.263112 8.746666 6.485333 5.831111 9.742222 13.368889 9.742222 22.584889v59.320889c0 9.216-3.256889 16.739556-9.742222 22.584889-6.499556 5.831111-14.577778 8.746667-24.263112 8.746667h-127.985777v-30.72h104.789333v-60.544zM796.444444 924.444444v33.194667A66.360889 66.360889 0 0 1 730.083556 1024H293.916444A66.360889 66.360889 0 0 1 227.555556 957.639111V924.444444h-45.738667A124.928 124.928 0 0 1 56.888889 799.516444V124.928A124.928 124.928 0 0 1 181.816889 0h660.366222A124.928 124.928 0 0 1 967.111111 124.928v674.588444A124.928 124.928 0 0 1 842.183111 924.444444H796.444444zM181.816889 85.333333A39.594667 39.594667 0 0 0 142.222222 124.928v674.588444A39.594667 39.594667 0 0 0 181.816889 839.111111h660.366222A39.594667 39.594667 0 0 0 881.777778 799.516444V124.928A39.594667 39.594667 0 0 0 842.183111 85.333333H181.816889z" p-id="25457"></path></svg>