<?xml version="1.0" standalone="no"?><!DOCTYPE svg PUBLIC "-//W3C//DTD SVG 1.1//EN" "http://www.w3.org/Graphics/SVG/1.1/DTD/svg11.dtd"><svg t="1703573045388" class="icon" viewBox="0 0 1024 1024" version="1.1" xmlns="http://www.w3.org/2000/svg" p-id="18422" xmlns:xlink="http://www.w3.org/1999/xlink" width="200" height="200"><path d="M512 66.56c-245.76 0-445.44 199.68-445.44 445.44s199.68 445.44 445.44 445.44 445.44-199.68 445.44-445.44-199.68-445.44-445.44-445.44z m253.44 560.64c-0.512 0-0.512 0 0 0H660.48c-9.216 0-17.408-6.656-18.944-15.872l-18.432-110.592-69.12 240.128c-2.56 8.192-9.728 13.824-18.432 13.824h-0.512c-8.704-0.512-16.384-6.656-17.92-15.36L436.736 365.056l-50.688 215.552c-2.048 8.704-9.728 14.848-18.944 14.848H258.56c-9.728 0-17.92-8.192-17.92-17.92s8.192-17.92 17.92-17.92h95.744l64.512-274.944c2.048-8.704 9.728-14.848 18.944-14.848 9.216 0 16.896 6.144 18.432 15.36l80.896 381.952 70.656-246.784c2.56-8.704 10.24-14.336 19.456-13.824 9.216 0.512 16.384 7.168 17.92 15.872l28.672 168.96h91.136c9.728 0 17.92 8.192 17.92 17.92 0.512 9.728-7.68 17.92-17.408 17.92z" p-id="18423"></path></svg>