<?xml version="1.0" standalone="no"?><!DOCTYPE svg PUBLIC "-//W3C//DTD SVG 1.1//EN" "http://www.w3.org/Graphics/SVG/1.1/DTD/svg11.dtd"><svg t="1703573269456" class="icon" viewBox="0 0 1024 1024" version="1.1" xmlns="http://www.w3.org/2000/svg" p-id="23483" xmlns:xlink="http://www.w3.org/1999/xlink" width="200" height="200"><path d="M747.52 112.64c90.49088 0 163.84 73.34912 163.84 163.84v471.04c0 90.49088-73.34912 163.84-163.84 163.84H276.48c-90.49088 0-163.84-73.34912-163.84-163.84V276.48c0-90.49088 73.34912-163.84 163.84-163.84h471.04z m-6.144 163.84H282.624l-3.64544 0.11264C248.87296 278.528 225.28 304.1792 225.28 335.23712v363.76576l0.11264 3.69664C227.25632 733.29664 252.01664 757.76 282.624 757.76h242.87232l2.28352-0.1536a16.81408 16.81408 0 0 0 14.58176-16.64c0-9.2672-7.55712-16.7936-16.86528-16.7936H282.624l-2.54976-0.13312c-11.71456-1.35168-21.06368-11.91936-21.06368-25.0368V335.23712l0.14336-2.7648c1.30048-12.72832 11.44832-22.41536 23.47008-22.41536h458.752l2.54976 0.14336c11.71456 1.35168 21.06368 11.91936 21.06368 25.0368v217.43616l0.1536 2.27328c1.11616 8.192 8.17152 14.52032 16.71168 14.52032 9.3184 0 16.86528-7.5264 16.86528-16.7936V335.23712l-0.11264-3.69664C796.74368 300.94336 771.98336 276.48 741.376 276.48z m3.54304 341.37088c-8.57088 0-16.25088 1.60768-23.02976 4.8128-6.77888 3.19488-12.06272 7.72096-15.83104 13.568a35.79904 35.79904 0 0 0-5.66272 19.84512c0 10.58816 3.26656 19.1488 9.78944 25.7024 6.52288 6.53312 16.384 10.78272 29.55264 12.72832 9.984 1.39264 16.82432 3.45088 20.54144 6.16448 3.70688 2.7136 5.56032 6.8608 5.56032 12.43136 0 5.29408-1.8432 9.29792-5.56032 12.01152-3.71712 2.7136-8.89856 4.07552-15.54432 4.07552-7.168 0-13.02528-1.67936-17.5616-5.0176-4.54656-3.33824-7.7824-8.00768-9.69728-13.99808l-21.11488 10.6496c2.94912 10.0352 8.704 17.7664 17.27488 23.1936 8.57088 5.4272 19.456 8.1408 32.63488 8.1408 9.08288 0 17.17248-1.69984 24.2688-5.12 7.10656-3.39968 12.6464-8.21248 16.60928-14.40768s5.94944-13.40416 5.94944-21.61664c0-11.56096-3.35872-20.61312-10.07616-27.15648-6.71744-6.54336-17.11104-10.8544-31.19104-12.9536-8.96-1.39264-15.19616-3.2768-18.70848-5.632-3.52256-2.36544-5.28384-5.7856-5.28384-10.24 0-4.59776 1.6384-8.11008 4.89472-10.5472 3.26656-2.43712 7.71072-3.65568 13.34272-3.65568 12.41088 0 20.21376 5.29408 23.41888 15.872l21.10464-10.6496a35.16416 35.16416 0 0 0-15.73888-20.7872c-7.92576-4.93568-17.90976-7.41376-29.94176-7.41376z m-145.408 2.92864H568.2176l42.60864 128.4608h32.0512l42.22976-128.4608h-29.94176l-27.83232 102.3488-27.83232-102.3488zM433.28512 360.42752c-68.3008 0-123.68896 55.12192-123.68896 123.11552s55.37792 123.11552 123.68896 123.11552c68.3008 0 123.67872-55.12192 123.67872-123.11552s-55.37792-123.11552-123.67872-123.11552z m0 44.76928l42.27072 0.1536-42.27072 68.72064h56.2176L419.2256 584.27392l14.05952-82.64704h-56.2176l56.2176-96.43008z"  p-id="23484"></path></svg>