<?xml version="1.0" standalone="no"?><!DOCTYPE svg PUBLIC "-//W3C//DTD SVG 1.1//EN" "http://www.w3.org/Graphics/SVG/1.1/DTD/svg11.dtd"><svg t="1703572111952" class="icon" viewBox="0 0 1024 1024" version="1.1" xmlns="http://www.w3.org/2000/svg" p-id="6793" xmlns:xlink="http://www.w3.org/1999/xlink" width="200" height="200"><path d="M683.52 986.88l-117.76-117.76c-30.08-30.08-78.08-30.08-108.16 0L326.4 1000.96c49.92 14.72 103.04 23.04 158.08 23.04 69.76 0 137.6-12.8 199.04-37.12zM556.8 411.52c-13.44-8.96-35.2-13.44-67.2-13.44h-38.4c-2.56 0-4.48 1.92-4.48 4.48V518.4c0 2.56 1.92 4.48 4.48 4.48h40.32c30.72 0 52.48-5.12 65.92-15.36 13.44-10.24 19.84-26.24 19.84-49.28 0-23.04-6.4-37.76-20.48-46.72z" p-id="6794"></path><path d="M512 0C238.08 0 16.64 222.08 16.64 495.36c0 195.84 113.92 365.44 279.04 445.44l162.56-162.56c30.08-30.08 78.08-30.08 108.16 0l162.56 162.56c165.12-80.64 279.04-249.6 279.04-445.44C1007.36 222.08 785.92 0 512 0z m75.52 536.96c-21.76 17.28-51.84 25.6-90.88 25.6h-46.08c-2.56 0-4.48 1.92-4.48 4.48v110.08c0 12.16-10.24 22.4-22.4 22.4s-22.4-10.24-22.4-22.4V380.16c0-12.16 10.24-22.4 22.4-22.4h70.4c40.96 0 71.04 7.04 91.52 21.76C609.28 396.16 620.8 422.4 620.8 457.6c1.28 34.56-10.24 61.44-33.28 79.36z m171.52-195.2c-8.32 5.12-19.84 2.56-24.96-6.4C688 260.48 604.8 211.2 511.36 211.2c-93.44 0-175.36 49.28-221.44 123.52-5.12 8.96-17.28 10.88-24.96 5.12-8.32-5.12-10.88-16-5.12-24.32C312.32 231.68 405.76 175.36 512 175.36c106.88 0 200.32 56.96 252.8 141.44 5.12 8.32 3.2 19.2-5.76 24.96z" p-id="6795"></path></svg>