<?xml version="1.0" standalone="no"?><!DOCTYPE svg PUBLIC "-//W3C//DTD SVG 1.1//EN" "http://www.w3.org/Graphics/SVG/1.1/DTD/svg11.dtd"><svg t="1704682627252" class="icon" viewBox="0 0 1024 1024" version="1.1" xmlns="http://www.w3.org/2000/svg" p-id="22201" width="128" height="128" xmlns:xlink="http://www.w3.org/1999/xlink"><path d="M909.7 515c-23-0.3-42.4 16.8-45.3 39.6C844 715.9 714.1 844.9 552.6 864.2c-22.8 2.7-40 22-39.9 45 0.1 26.7 23.4 47.6 50 44.5 42-4.9 83-15.7 122.1-32.3 52.6-22.3 99.9-54.1 140.6-94.5 40.7-40.4 72.8-87.5 95.4-139.9 16.9-39 27.9-79.8 33.1-121.7 3.2-26.5-17.5-49.9-44.2-50.3zM724.5 509.9c0-57.2-22.3-110.9-62.7-151.4-40.4-40.4-94.2-62.7-151.4-62.7S399.5 318.1 359 358.5c-40.4 40.4-62.7 94.2-62.7 151.4s22.3 110.9 62.7 151.4c40.4 40.4 94.2 62.7 151.4 62.7s110.9-22.3 151.4-62.7c40.5-40.4 62.7-94.2 62.7-151.4z m-218.2 124c-65-2.1-117.8-54.9-119.9-119.9-2.3-71.7 56.5-130.4 128.1-128.1 65 2.1 117.8 54.9 119.9 119.9 2.4 71.7-56.4 130.5-128.1 128.1zM512.7 220.1c24.9 0 45-20.1 45-45v-65.6c0-24.9-20.1-45-45-45s-45 20.1-45 45v65.6c0 24.8 20.2 45 45 45zM238.9 307.2c17.6 17.6 46.1 17.6 63.6 0 17.6-17.6 17.6-46.1 0-63.6l-46.4-46.4c-17.6-17.6-46.1-17.6-63.6 0-17.6 17.6-17.6 46.1 0 63.6l46.4 46.4zM215.5 517.4c0-24.9-20.1-45-45-45h-65.6c-24.9 0-45 20.1-45 45s20.1 45 45 45h65.6c24.8 0 45-20.2 45-45zM302.5 727.6c-17.6-17.6-46.1-17.6-63.6 0L192.5 774c-17.6 17.6-17.6 46.1 0 63.6 17.6 17.6 46.1 17.6 63.6 0l46.4-46.4c17.6-17.5 17.6-46 0-63.6zM723 307.2c17.6 17.6 46.1 17.6 63.6 0l46.4-46.4c17.6-17.6 17.6-46.1 0-63.6-17.6-17.6-46.1-17.6-63.6 0L723 243.5c-17.6 17.6-17.6 46.1 0 63.7z" p-id="22202"></path></svg>