<?xml version="1.0" standalone="no"?><!DOCTYPE svg PUBLIC "-//W3C//DTD SVG 1.1//EN" "http://www.w3.org/Graphics/SVG/1.1/DTD/svg11.dtd"><svg t="1704968756354" class="icon" viewBox="0 0 1024 1024" version="1.1" xmlns="http://www.w3.org/2000/svg" p-id="26388" xmlns:xlink="http://www.w3.org/1999/xlink" width="48" height="48"><path d="M944 1024H80c-44 0-80-36-80-80V80C0 36 36 0 80 0h864c44 0 80 36 80 80v864c0 44-36 80-80 80z" p-id="26389"></path><path d="M508.4 686.3c-40.8 0-74.1 33-74.1 73.5s33.2 73.5 74.1 73.5 74.1-33 74.1-73.5-33.2-73.5-74.1-73.5zM606.9 377.6v-2.3c0-53.7-43.9-97.3-98-97.3s-98 43.6-98 97.3c0 7.4 0.8 14.6 2.5 21.9l37.5 209.5C454 626 470.4 640 490.1 640h37.5c19.6 0 36-13.9 39.2-33.1l37.5-199.2c2.6-13.3 2.6-21.1 2.6-30.1z" fill="#FFFFFF" p-id="26390"></path><path d="M787.3 462.5v380h67.1V636.3H912L787.3 462.5z m39 145.9v206.1h-10.8V550l41.9 58.4h-31.1zM701.4 738.3h-57.5L768.6 912V532.1h-67.1v206.2z m28.2-178.2h10.8v264.6l-41.9-58.4h31.1V560.1z" fill="#FFFFFF" p-id="26391"></path><path d="M629.6 857.6H188.4c-12 0-22.6-5.9-28.9-16s-6.9-22.2-1.5-32.9l320.5-636.1c5.9-11.6 17.3-18.6 30.4-18.6 13.1 0 24.6 7 30.4 18.6l141 279.7c5.3 10.3 17.9 14.5 28.4 9.4 10.4-5.2 14.6-17.8 9.5-28.1l-141-279.7C564.1 128 538 112 508.9 112c-29.1 0-55.2 16-68.2 41.8L120.1 790c-11.9 23.7-10.7 51.1 3.4 73.7 14 22.4 38.3 35.9 64.9 35.9h441.2c11.6 0 21.1-9.4 21.1-21s-9.4-21-21.1-21z" fill="#FFFFFF" p-id="26392"></path></svg>