<?xml version="1.0" standalone="no"?><!DOCTYPE svg PUBLIC "-//W3C//DTD SVG 1.1//EN" "http://www.w3.org/Graphics/SVG/1.1/DTD/svg11.dtd"><svg t="1703736185023" class="icon" viewBox="0 0 1024 1024" version="1.1" xmlns="http://www.w3.org/2000/svg" p-id="4233" xmlns:xlink="http://www.w3.org/1999/xlink" width="200" height="200"><path d="M512 128h-85.333333l55.466666-55.466667c17.066667-17.066667 17.066667-42.666667 0-59.733333s-42.666667-17.066667-59.733333 0l-128 128c-17.066667 17.066667-17.066667 42.666667 0 59.733333l128 128c8.533333 8.533333 21.333333 12.8 29.866667 12.8s21.333333-4.266667 29.866666-12.8c17.066667-17.066667 17.066667-42.666667 0-59.733333L426.666667 213.333333h85.333333c200.533333 0 362.666667 162.133333 362.666667 362.666667S712.533333 938.666667 512 938.666667s-362.666667-162.133333-362.666667-362.666667c0-64 17.066667-128 51.2-183.466667 12.8-21.333333 4.266667-46.933333-17.066666-59.733333-17.066667-12.8-46.933333-4.266667-55.466667 12.8-42.666667 68.266667-64 149.333333-64 230.4C64 823.466667 264.533333 1024 512 1024s448-200.533333 448-448S759.466667 128 512 128z" p-id="4234"></path><path d="M674.133333 576c0-89.6-72.533333-162.133333-162.133333-162.133333s-162.133333 72.533333-162.133333 162.133333 72.533333 162.133333 162.133333 162.133333 162.133333-72.533333 162.133333-162.133333z m-238.933333 0c0-42.666667 34.133333-76.8 76.8-76.8s76.8 34.133333 76.8 76.8-34.133333 72.533333-76.8 72.533333-76.8-29.866667-76.8-72.533333z" p-id="4235"></path></svg>