<?xml version="1.0" standalone="no"?><!DOCTYPE svg PUBLIC "-//W3C//DTD SVG 1.1//EN" "http://www.w3.org/Graphics/SVG/1.1/DTD/svg11.dtd"><svg t="1703476354240" class="icon" viewBox="0 0 1024 1024" version="1.1" xmlns="http://www.w3.org/2000/svg" p-id="4299" xmlns:xlink="http://www.w3.org/1999/xlink" width="200" height="200"><path d="M813.226667 550.570667a170.709333 170.709333 0 0 1 36.522666 187.306666l114.346667 114.346667a64 64 0 0 1 4.138667 85.973333l-4.138667 4.565334a64 64 0 0 1-90.496 0l-114.389333-114.346667a170.709333 170.709333 0 0 1-213.674667-243.882667l116.906667 116.906667 60.288-60.373333-116.864-116.906667a170.752 170.752 0 0 1 207.36 26.410667zM810.666667 85.333333a42.666667 42.666667 0 0 1 42.666666 42.666667v298.666667h-128V213.333333H213.333333v597.333334h256v128H128a42.666667 42.666667 0 0 1-42.666667-42.666667V128a42.666667 42.666667 0 0 1 42.666667-42.666667h682.666667z m-341.333334 426.666667v128H298.666667v-128h170.666666z m170.666667-213.333333v128H298.666667V298.666667h341.333333z"  p-id="4300"></path></svg>