<?xml version="1.0" standalone="no"?><!DOCTYPE svg PUBLIC "-//W3C//DTD SVG 1.1//EN" "http://www.w3.org/Graphics/SVG/1.1/DTD/svg11.dtd"><svg t="1703831323033" class="icon" viewBox="0 0 1024 1024" version="1.1" xmlns="http://www.w3.org/2000/svg" p-id="15949" xmlns:xlink="http://www.w3.org/1999/xlink" width="200" height="200"><path d="M323.31 487.38H700.7V338.22H323.31v149.16z m317.64-125.8c0-5.81 4.7-10.26 10.39-10.26 5.94 0 10.51 4.45 10.51 10.26v102.54c0 5.69-4.57 10.39-10.51 10.39-5.69 0-10.39-4.7-10.39-10.39V361.58z m-55.66 0c0-5.81 4.57-10.26 10.39-10.26 5.94 0 10.39 4.45 10.39 10.26v102.54c0 5.69-4.45 10.39-10.39 10.39-5.81 0-10.39-4.7-10.39-10.39V361.58z m-55.91 0c0-5.81 4.7-10.26 10.51-10.26 5.69 0 10.51 4.45 10.51 10.26v102.54c0 5.69-4.83 10.39-10.51 10.39-5.81 0-10.51-4.7-10.51-10.39V361.58z m-55.92 0c0-5.81 4.71-10.26 10.53-10.26 5.81 0 10.51 4.45 10.51 10.26v102.54c0 5.69-4.7 10.39-10.51 10.39s-10.53-4.7-10.53-10.39V361.58z m-55.65 0c0-5.81 4.7-10.26 10.39-10.26 5.94 0 10.51 4.45 10.51 10.26v102.54c0 5.69-4.57 10.39-10.51 10.39-5.69 0-10.39-4.7-10.39-10.39V361.58z m-55.78 0c0-5.81 4.81-10.26 10.51-10.26 5.69 0 10.39 4.45 10.39 10.26v102.54c0 5.69-4.7 10.39-10.39 10.39-5.7 0-10.51-4.7-10.51-10.39V361.58zM664.46 531.92v-4.83c0-1.86 0.11-3.34 0.61-4.83H358.81c0.49 1.48 0.86 2.96 0.86 4.83v4.83h304.79z" p-id="15950"></path><path d="M512 64C264.58 64 64 264.58 64 512s200.58 448 448 448 448-200.58 448-448S759.42 64 512 64z m223.58 257.39v183.56c0 9.64-7.79 17.31-17.57 17.31h-19.42c0.49 1.48 0.74 2.96 0.74 4.83v4.83h18.68c9.78 0 17.57 7.54 17.57 17.06v184.06c0 9.89-7.79 17.55-17.57 17.55H305.86c-9.65 0-17.44-7.66-17.44-17.55V548.98c0-9.53 7.79-17.06 17.44-17.06h18.92v-4.83c0-1.86 0-3.34 0.49-4.83h-19.42c-9.65 0-17.44-7.68-17.44-17.31V320.9c0-9.78 7.79-17.57 17.44-17.57h18.93v-12.62c0-9.53 7.68-17.31 17.31-17.31 9.65 0 17.57 7.79 17.57 17.31v12.62h304.78v-12.62c0-9.53 7.66-17.31 17.31-17.31 9.64 0 17.56 7.79 17.56 17.31v12.62h18.68c9.78 0 17.57 7.79 17.57 17.57v0.49z" p-id="15951"></path><path d="M323.31 715.71H700.7V566.55H323.31v149.16z m317.64-125.78c0-5.69 4.7-10.27 10.39-10.27 5.94 0 10.51 4.59 10.51 10.27v102.53c0 5.7-4.57 10.4-10.51 10.4-5.69 0-10.39-4.7-10.39-10.4V589.93z m-55.66 0c0-5.69 4.57-10.27 10.39-10.27 5.94 0 10.39 4.59 10.39 10.27v102.53c0 5.7-4.45 10.4-10.39 10.4-5.81 0-10.39-4.7-10.39-10.4V589.93z m-55.91 0c0-5.69 4.7-10.27 10.51-10.27 5.69 0 10.51 4.59 10.51 10.27v102.53c0 5.7-4.83 10.4-10.51 10.4-5.81 0-10.51-4.7-10.51-10.4V589.93z m-55.92 0c0-5.69 4.71-10.27 10.53-10.27 5.81 0 10.51 4.59 10.51 10.27v102.53c0 5.7-4.7 10.4-10.51 10.4s-10.53-4.7-10.53-10.4V589.93z m-55.65 0c0-5.69 4.7-10.27 10.39-10.27 5.94 0 10.51 4.59 10.51 10.27v102.53c0 5.7-4.57 10.4-10.51 10.4-5.69 0-10.39-4.7-10.39-10.4V589.93z m-55.78 0c0-5.69 4.81-10.27 10.51-10.27 5.69 0 10.39 4.59 10.39 10.27v102.53c0 5.7-4.7 10.4-10.39 10.4-5.7 0-10.51-4.7-10.51-10.4V589.93z" p-id="15952"></path></svg>