<?xml version="1.0" standalone="no"?><!DOCTYPE svg PUBLIC "-//W3C//DTD SVG 1.1//EN" "http://www.w3.org/Graphics/SVG/1.1/DTD/svg11.dtd"><svg t="1704335687882" class="icon" viewBox="0 0 1024 1024" version="1.1" xmlns="http://www.w3.org/2000/svg" p-id="4936" width="128" height="128" xmlns:xlink="http://www.w3.org/1999/xlink"><path d="M174.8256 62.464L402.9216 62.72h297.664c50.56 0 96.128-0.128 132.48-0.256 44.352 0 88.96 27.2 98.688 71.808l90.88 437.888c11.072 55.872-29.44 104.064-89.408 103.872H584.1056l-0.064 209.728h51.968c11.392 0 32.512 8.32 37.12 19.008l0.96 4.16 29.632 51.072H333.6736l29.696-51.136c0-12.8 25.088-23.104 37.952-23.104h49.024v-209.728H91.8816c-60.032 0-100.48-48.128-89.536-103.872L93.2896 134.272c9.92-44.48 37.12-71.808 81.536-71.808z m669.44 51.008H180.9696c-13.76 0-29.696 3.392-33.92 27.008L70.5696 570.496c-4.224 24.448 15.36 50.368 40.768 50.496H913.7696c25.408-0.128 45.44-26.048 41.152-50.624L878.5696 140.48c-4.224-23.68-20.544-27.008-34.304-27.008zM596.0096 375.552c8.96 0 16.256 6.528 16.64 14.848l7.488 153.6c0.576 8.128-6.4 15.232-15.232 15.232H417.9616c-9.024 0-16.192-6.976-15.808-15.232l7.488-153.6c0.384-8.32 7.744-14.848 16.64-14.848z m234.688 1.472c9.152 0 17.088 6.336 19.2 15.232l23.68 150.272c1.28 8.512-4.8 15.232-13.952 15.232h-174.464c-9.152 0-18.304-6.592-19.008-15.232l-12.608-150.272c-0.64-8.512 5.248-15.232 14.4-15.232z m-474.048 0c9.216 0 14.656 6.592 14.08 15.232l-12.16 150.272c-0.64 8.512-9.792 15.232-19.008 15.232H165.2256c-9.152 0-15.36-6.784-13.952-15.232l23.68-150.208c1.408-8.512 9.856-15.232 19.072-15.232z m442.432-205.12c8.32 0 16 5.76 17.28 12.992l21.76 126.144c1.216 7.232-4.16 13.056-12.544 13.056h-160.448c-8.32 0-16.64-5.76-17.152-13.056L639.2096 184.96c-0.384-7.232 4.288-13.056 12.608-13.056z m-426.624 0c8.32 0 13.568 5.76 13.056 12.992L376.3616 311.04c-0.64 7.232-8.96 13.056-17.28 13.056h-160c-8.384 0-13.824-5.76-12.608-13.056l21.312-126.08c1.28-7.232 9.344-13.056 17.664-13.056z m213.248 0c9.024 0 16.768 6.144 17.216 13.952l6.912 121.536c0.576 7.936-6.4 14.784-15.232 14.784h-165.12c-8.896 0.064-15.68-6.848-15.296-14.784l7.552-121.536c0.384-7.872 7.68-13.952 16.64-13.952z" fill="" p-id="4937"></path></svg>