<?xml version="1.0" standalone="no"?><!DOCTYPE svg PUBLIC "-//W3C//DTD SVG 1.1//EN" "http://www.w3.org/Graphics/SVG/1.1/DTD/svg11.dtd"><svg t="1703572035498" class="icon" viewBox="0 0 1024 1024" version="1.1" xmlns="http://www.w3.org/2000/svg" p-id="5741" xmlns:xlink="http://www.w3.org/1999/xlink" width="200" height="200"><path d="M687.36 984.96l-117.12-117.12c-29.44-29.44-78.08-29.44-107.52 0l-131.2 131.2c49.92 14.72 102.4 23.04 157.44 23.04 69.76 0 136.32-13.44 198.4-37.12z" p-id="5742"></path><path d="M515.84 1.92C243.84 1.92 22.4 222.72 22.4 495.36c0 195.2 113.28 364.16 277.76 444.16l161.92-161.92c29.44-29.44 78.08-29.44 107.52 0l161.92 161.92c164.48-80 277.76-248.96 277.76-444.16C1009.92 222.72 788.48 1.92 515.84 1.92z m-8.32 723.2h-26.88V672h-40.32v53.76h-26.88v-147.2h26.88v66.56h40.32V577.92h26.88v147.2z m97.28-80l-49.28 53.76h49.28v26.88H524.8v-26.88l50.56-53.76H524.8v-26.88h80v26.88z m122.24-285.44c-3.84 7.04-11.52 10.88-19.2 10.24H613.76c-9.6 0-18.56-6.4-21.12-16l-1.92-7.04-49.92 157.44c-2.56 8.96-10.88 14.72-20.48 14.72-10.24 0-18.56-7.04-21.12-16.64l-49.28-213.12-37.12 138.24c-2.56 8.96-10.24 15.36-19.84 16-9.6 0.64-17.92-5.12-21.12-14.08l-22.4-62.72H271.36c-12.16 0-21.76-9.6-21.76-21.76s9.6-21.76 21.76-21.76H364.8c8.96 0 17.28 5.76 20.48 14.08l4.48 12.16 41.6-154.88c-1.28-8.32 2.56-16.64 9.6-21.12 7.68-5.12 17.28-4.48 24.32 0.64 7.04 5.12 10.24 13.44 8.32 21.76L523.52 416l48.64-154.24c3.2-8.96 11.52-15.36 20.48-15.36h0.64c9.6 0 17.92 7.04 20.48 16l16 64h76.8c7.68-0.64 15.36 3.84 19.2 10.24 5.12 7.68 5.12 16.64 1.28 23.04z m67.84 14.08c-13.44 0-24.96-10.88-24.96-24.96 0-13.44 10.88-24.96 24.96-24.96s24.96 10.88 24.96 24.96c0 13.44-10.88 24.96-24.96 24.96z" p-id="5743"></path></svg>