<?xml version="1.0" standalone="no"?><!DOCTYPE svg PUBLIC "-//W3C//DTD SVG 1.1//EN" "http://www.w3.org/Graphics/SVG/1.1/DTD/svg11.dtd"><svg t="1704955831332" class="icon" viewBox="0 0 1173 1024" version="1.1" xmlns="http://www.w3.org/2000/svg" p-id="16209" xmlns:xlink="http://www.w3.org/1999/xlink" width="54.984375" height="48"><path d="M686.356757 946.508108h-88.562162v-130.075676h96.864864c-5.535135-24.908108-8.302703-52.583784-8.302702-77.491891H143.913514c-35.978378 0-66.421622-30.443243-66.421622-66.421622v-525.837838c0-35.978378 30.443243-66.421622 66.421622-66.421622h833.037837c35.978378 0 66.421622 30.443243 66.421622 66.421622v235.243243c27.675676 0 52.583784 2.767568 77.491892 8.302703V143.913514c0-80.259459-63.654054-143.913514-143.913514-143.913514H143.913514C63.654054 0 0 63.654054 0 143.913514v525.837837c0 80.259459 63.654054 143.913514 143.913514 143.913514h376.389189v130.075676h-88.562162c-22.140541 0-38.745946 16.605405-38.745946 38.745945s16.605405 38.745946 38.745946 38.745946h254.616216c22.140541 0 38.745946-16.605405 38.745946-38.745946s-16.605405-35.978378-38.745946-35.978378z" p-id="16210"></path><path d="M929.902703 799.827027c-85.794595 0-157.751351-71.956757-157.751352-157.751351s71.956757-157.751351 157.751352-157.751352v-77.491892c-130.075676 0-235.243243 105.167568-235.243244 235.243244s105.167568 235.243243 235.243244 235.243243 235.243243-105.167568 235.243243-235.243243h-77.491892c0 88.562162-71.956757 157.751351-157.751351 157.751351z" p-id="16211"></path><path d="M1007.394595 392.994595h-24.908109v190.962162h190.962163v-24.908108c-2.767568-94.097297-74.724324-166.054054-166.054054-166.054054z m24.908108 138.378378v-83.027027c41.513514 11.07027 71.956757 41.513514 83.027027 83.027027h-83.027027zM697.427027 323.805405h-135.610811l77.491892-177.124324h-116.237838l-121.772973 276.756757h116.237838l-77.491892 235.243243z" p-id="16212"></path></svg>