<?xml version="1.0" standalone="no"?><!DOCTYPE svg PUBLIC "-//W3C//DTD SVG 1.1//EN" "http://www.w3.org/Graphics/SVG/1.1/DTD/svg11.dtd"><svg t="1703572538407" class="icon" viewBox="0 0 1093 1024" version="1.1" xmlns="http://www.w3.org/2000/svg" p-id="8120" xmlns:xlink="http://www.w3.org/1999/xlink" width="213.4765625" height="200"><path d="M262.167868 778.050278h78.719211v127.564903H262.167868z m244.802212 0h78.719211v127.564903h-78.60446z m245.108214 0h78.719211v127.564903h-78.56621zM885.342497 26.239737A39.053603 39.053603 0 0 0 848.201412 0H244.916962a39.053603 39.053603 0 0 0-37.102835 26.239737l-196.262523 554.63001h1070.206418z" p-id="8121"></path><path d="M0 659.627209v324.898434a39.474357 39.474357 0 0 0 39.474357 39.474357h1014.207911a39.474357 39.474357 0 0 0 39.474357-39.474357v-324.898434z m1014.399163 285.844832H78.719211v-206.551866H1014.399163z" p-id="8122"></path></svg>