<?xml version="1.0" standalone="no"?><!DOCTYPE svg PUBLIC "-//W3C//DTD SVG 1.1//EN" "http://www.w3.org/Graphics/SVG/1.1/DTD/svg11.dtd"><svg t="1704184412669" class="icon" viewBox="0 0 1024 1024" version="1.1" xmlns="http://www.w3.org/2000/svg" p-id="4674" xmlns:xlink="http://www.w3.org/1999/xlink" width="200" height="200"><path d="M658.56 948.32H365.12a70.08 70.08 0 0 1-69.92-69.92V272a70.08 70.08 0 0 1 69.92-70.08h293.44A70.08 70.08 0 0 1 728.48 272v606.4a70.08 70.08 0 0 1-69.92 69.92z m-293.44-710.4A34.56 34.56 0 0 0 330.56 272v606.4a34.56 34.56 0 0 0 34.56 34.56h293.44a34.56 34.56 0 0 0 34.56-34.56V272a34.72 34.72 0 0 0-34.56-34.72H365.12z"  p-id="4675"></path><path d="M582.88 237.92h-142.08a17.76 17.76 0 0 1-17.76-17.6V176a43.84 43.84 0 0 1 43.84-43.68h89.92A43.68 43.68 0 0 1 600.48 176v44.96a17.44 17.44 0 0 1-17.6 16.96z m-124.48-35.36h106.72V176a8.32 8.32 0 0 0-8.32-8.32h-89.92a8.32 8.32 0 0 0-8.48 8.32z m-145.44 717.28H99.84a46.24 46.24 0 0 1-46.24-46.08V419.04a46.24 46.24 0 0 1 46.24-46.08h213.12a17.76 17.76 0 0 1 0 35.36H99.84a11.04 11.04 0 0 0-10.88 10.72v454.72a10.88 10.88 0 0 0 10.88 10.72h213.12a17.76 17.76 0 0 1 0 35.36z" p-id="4676"></path><path d="M256 408.48h-85.12a17.76 17.76 0 0 1-17.76-17.76V360a43.84 43.84 0 0 1 43.84-43.68h32.96a43.68 43.68 0 0 1 43.68 43.68v30.72a17.44 17.44 0 0 1-17.6 17.76z m-67.68-35.36h50.08v-13.12a8.32 8.32 0 0 0-8.32-8.32h-32.96a8.32 8.32 0 0 0-8.48 8.32v13.12z m736 546.72H710.72a17.76 17.76 0 1 1 0-35.36h213.12a10.88 10.88 0 0 0 10.72-10.72V419.04a10.88 10.88 0 0 0-10.72-10.72H710.72a17.76 17.76 0 1 1 0-35.36h213.12a46.08 46.08 0 0 1 46.08 46.08v454.72a46.08 46.08 0 0 1-46.08 46.08z" p-id="4677"></path><path d="M852.8 408.48H768a17.76 17.76 0 0 1-17.6-17.76V360a43.68 43.68 0 0 1 43.68-43.68h33.12a43.68 43.68 0 0 1 43.2 43.68v30.72a17.6 17.6 0 0 1-17.6 17.76z m-67.52-35.36h49.92v-13.12a8.32 8.32 0 0 0-8.48-8.32h-32.96a8.32 8.32 0 0 0-8.32 8.32v13.12z m167.04 134.72H710.88a17.76 17.76 0 1 1 0-35.36h241.44a17.76 17.76 0 1 1 0 35.36z m-640 0H71.36a17.76 17.76 0 0 1 0-35.36h241.6a17.76 17.76 0 1 1 0 35.36z m170.4 384a17.6 17.6 0 0 1-12.48-5.12 17.92 17.92 0 0 1-5.12-12.64 13.76 13.76 0 0 1 0-3.52 25.44 25.44 0 0 1 1.12-3.2 11.04 11.04 0 0 1 1.6-3.04 12 12 0 0 1 2.24-2.72l2.72-2.08 3.04-1.76 3.36-1.12a18.08 18.08 0 0 1 16 4.8 12 12 0 0 1 2.24 2.72l1.76 3.04 0.96 3.36a24 24 0 0 1 0 3.52 17.6 17.6 0 0 1-5.12 12.48 18.24 18.24 0 0 1-11.68 4.96z m56.96 0a17.76 17.76 0 0 1-17.76-17.76 14.24 14.24 0 0 1 0-3.52l0.96-3.2c0-1.12 1.12-2.08 1.6-3.04s1.6-1.92 2.24-2.72a20.16 20.16 0 0 1 5.76-3.84 18.08 18.08 0 0 1 19.36 3.84 17.44 17.44 0 0 1 2.08 2.72 18.88 18.88 0 0 1 1.76 3.04c0 1.12 0 2.24 1.12 3.2s0 2.4 0 3.52a18.56 18.56 0 0 1-5.12 12.64 25.76 25.76 0 0 1-5.76 3.84 21.76 21.76 0 0 1-5.6 0.96z m-113.6 0a16.96 16.96 0 0 1-12.48-5.12 17.92 17.92 0 0 1-5.12-12.64 13.76 13.76 0 0 1 0-3.52 12.16 12.16 0 0 1 0.96-3.2 18.24 18.24 0 0 1 1.6-3.04c0-0.96 1.6-1.92 2.24-2.72a20.16 20.16 0 0 1 5.76-3.84 17.76 17.76 0 0 1 19.2 3.84 12 12 0 0 1 2.24 2.72 18.88 18.88 0 0 1 1.76 3.04 24.32 24.32 0 0 1 0.96 3.2 13.76 13.76 0 0 1 0 3.52 17.92 17.92 0 0 1-5.12 12.64 18.88 18.88 0 0 1-11.36 4.8z m170.4 0a17.76 17.76 0 0 1-17.76-17.76 9.28 9.28 0 0 1 0-3.52 12.16 12.16 0 0 1 0.96-3.2 18.24 18.24 0 0 1 1.6-3.04c0-0.96 1.6-1.92 2.24-2.72a13.28 13.28 0 0 1 2.88-2.08 17.28 17.28 0 0 1 2.88-1.76l3.36-1.12a16 16 0 0 1 6.88 0l3.36 1.12 3.04 1.76a10.4 10.4 0 0 1 2.56 2.08 17.44 17.44 0 0 1 5.28 12.48 17.76 17.76 0 0 1-17.76 17.76z m56.8 0a17.6 17.6 0 0 1-12.48-5.12 16 16 0 0 1-3.84-5.76 17.12 17.12 0 0 1-1.44-6.88 16 16 0 0 1 1.44-6.72 16 16 0 0 1 3.84-5.76 12.16 12.16 0 0 1 2.72-2.08l2.88-1.76 3.52-1.12a16 16 0 0 1 6.88 0l3.2 1.12a18.88 18.88 0 0 1 3.04 1.76 11.2 11.2 0 0 1 2.72 2.08 20.16 20.16 0 0 1 3.84 5.76 14.08 14.08 0 0 1 1.28 6.72 16.96 16.96 0 0 1-1.28 6.88 22.56 22.56 0 0 1-3.84 5.76 17.92 17.92 0 0 1-11.84 4.8z m-169.92-57.28a16 16 0 0 1-12.32-5.12 16.8 16.8 0 0 1-5.28-12.48 13.12 13.12 0 0 1 0-3.52 27.52 27.52 0 0 1 1.12-3.36 13.92 13.92 0 0 1 1.6-3.04 28.32 28.32 0 0 1 2.24-2.72 17.6 17.6 0 0 1 16-4.64 7.68 7.68 0 0 1 3.2 1.12 13.6 13.6 0 0 1 3.04 1.6 17.44 17.44 0 0 1 2.72 2.08 16 16 0 0 1 2.24 2.72 25.6 25.6 0 0 0 1.76 3.04 26.56 26.56 0 0 1 0.96 3.36 23.84 23.84 0 0 1 0 3.36 20.16 20.16 0 0 1-1.28 6.88 17.6 17.6 0 0 1-9.6 9.6 26.88 26.88 0 0 1-6.4 1.12z m56.96 0a17.28 17.28 0 0 1-12.48-5.12 18.56 18.56 0 0 1-4-5.76 23.84 23.84 0 0 1-1.28-6.72 13.28 13.28 0 0 1 0-3.52l0.96-3.36 1.6-3.04c0-0.96 1.6-1.6 2.24-2.72a22.4 22.4 0 0 1 2.88-2.08l2.88-1.6A16 16 0 0 1 544 800a13.76 13.76 0 0 1 3.36 1.12l3.04 1.6a17.44 17.44 0 0 1 2.72 2.08l2.08 2.72 1.76 3.04c0 1.12 0 2.24 1.12 3.36s0 2.4 0 3.52a18.24 18.24 0 0 1-5.12 12.48 18.88 18.88 0 0 1-12.64 4.64z m56.8 0a18.56 18.56 0 0 1-6.72-1.28 16 16 0 0 1-5.76-3.84 16.8 16.8 0 0 1-5.28-12.48 17.44 17.44 0 0 1 5.28-12.64 13.44 13.44 0 0 1 2.72-2.08 8.96 8.96 0 0 1 3.04-1.6 17.44 17.44 0 0 1 19.04 3.68c0 1.12 1.6 1.76 2.24 2.72l1.6 3.04a13.28 13.28 0 0 1 0.96 3.36 8.96 8.96 0 0 1 0 3.52 17.12 17.12 0 0 1-5.28 12.48 19.36 19.36 0 0 1-5.6 3.84 20 20 0 0 1-6.24 1.28z m56.8 0a17.76 17.76 0 0 1-17.76-17.6 13.28 13.28 0 0 1 0-3.52 13.76 13.76 0 0 1 1.12-3.36 27.84 27.84 0 0 1 1.6-3.04c0-0.96 1.44-1.6 2.24-2.72l2.56-2.08 3.04-1.6 3.36-1.12a17.44 17.44 0 0 1 7.04 0l3.2 1.12a11.04 11.04 0 0 1 3.04 1.6l2.72 2.08c0.8 1.12 1.6 1.76 2.24 2.72l1.6 3.04a13.28 13.28 0 0 1 0.96 3.36 8.96 8.96 0 0 1 0 3.52 17.6 17.6 0 0 1-5.12 12.48 18.08 18.08 0 0 1-11.84 5.12z m-170.56-56.64a17.76 17.76 0 0 1-12.48-5.28 17.76 17.76 0 0 1 0-24.96 22.56 22.56 0 0 1 5.76-3.84 17.6 17.6 0 0 1 24.48 16 20.16 20.16 0 0 1-1.28 6.88 19.36 19.36 0 0 1-3.84 5.6 18.72 18.72 0 0 1-12.64 5.6z m56.96 0a17.76 17.76 0 0 1-12.48-5.28 16.8 16.8 0 0 1-5.28-12.48 17.44 17.44 0 0 1 5.28-12.48 18.24 18.24 0 0 1 24.96 0 17.76 17.76 0 0 1 0 24.96 18.4 18.4 0 0 1-12.48 5.28z m-113.6 0a17.76 17.76 0 0 1-12.48-30.24 18.24 18.24 0 0 1 24.96 0 17.44 17.44 0 0 1 0 24.96 18.4 18.4 0 0 1-12.48 5.28z m170.4 0a16 16 0 0 1-6.72-1.44 13.44 13.44 0 0 1-5.76-4 17.12 17.12 0 0 1-4-5.6 24.96 24.96 0 0 1-1.28-6.72 8.48 8.48 0 0 1 0-3.52 13.28 13.28 0 0 1 0.96-3.36 12.32 12.32 0 0 1 1.6-2.88c0-1.12 1.6-1.92 2.24-2.88a18.08 18.08 0 0 1 5.76-3.84 18.88 18.88 0 0 1 10.24-0.96l3.36 0.96 3.04 1.6c0.96 0 1.76 1.6 2.56 2.24a13.76 13.76 0 0 1 2.24 2.88 16 16 0 0 1 1.6 2.88 13.76 13.76 0 0 1 1.12 3.36 12.48 12.48 0 0 1 0 3.52 18.88 18.88 0 0 1-10.88 16 19.68 19.68 0 0 1-6.08 1.76z m56.8 0a18.08 18.08 0 0 1-17.76-17.76 17.76 17.76 0 0 1 21.28-17.28 7.68 7.68 0 0 1 3.2 1.12l3.04 1.6 2.72 2.24a17.28 17.28 0 0 1 5.12 12.48 17.6 17.6 0 0 1-5.12 12.48 17.28 17.28 0 0 1-12.48 5.12z m-170.56-56.96a18.24 18.24 0 0 1-12.48-5.12 17.6 17.6 0 0 1-5.12-12.48 18.24 18.24 0 0 1 5.12-12.64 22.56 22.56 0 0 1 5.76-3.84 18.4 18.4 0 0 1 19.36 3.84 18.88 18.88 0 0 1 5.12 12.64 19.2 19.2 0 0 1-1.28 6.72 22.56 22.56 0 0 1-3.84 5.76 16 16 0 0 1-5.92 3.68 16 16 0 0 1-6.72 1.44z m56.96 0a18.24 18.24 0 0 1-12.48-5.12 23.2 23.2 0 0 1-4-5.76 23.84 23.84 0 0 1-1.28-6.72 17.76 17.76 0 1 1 35.36 0 23.68 23.68 0 0 1-1.12 6.72 28.48 28.48 0 0 1-4 5.76 22.56 22.56 0 0 1-5.76 3.84 18.56 18.56 0 0 1-6.72 1.28z m56.8 0a18.56 18.56 0 0 1-6.72-0.96 16 16 0 0 1-5.76-3.84 19.68 19.68 0 0 1-4-5.76 23.84 23.84 0 0 1-1.28-6.72 17.76 17.76 0 0 1 5.28-12.64 13.6 13.6 0 0 1 2.72-2.24 8.96 8.96 0 0 1 3.04-1.6 17.76 17.76 0 0 1 19.04 3.84 18.4 18.4 0 0 1 5.28 12.64 17.76 17.76 0 0 1-5.28 12.48 17.28 17.28 0 0 1-12.32 4.8z m56.8 0a18.24 18.24 0 0 1-12.48-5.12 16 16 0 0 1-3.84-5.76 16 16 0 0 1-1.44-6.72 17.92 17.92 0 0 1 5.12-12.64 18.24 18.24 0 0 1 16-4.64 7.52 7.52 0 0 1 3.2 0.96 13.6 13.6 0 0 1 3.04 1.6l2.72 2.24A17.12 17.12 0 0 1 672 704a20 20 0 0 1-1.12 6.88 23.2 23.2 0 0 1-4 5.76 17.76 17.76 0 0 1-12.96 4.32zM483.36 664a24.64 24.64 0 0 1-6.72-1.12 23.2 23.2 0 0 1-5.76-4 17.28 17.28 0 0 1-5.12-12.48 17.6 17.6 0 0 1 5.12-12.48 16 16 0 0 1 5.76-3.68 17.44 17.44 0 0 1 24.48 16 18.56 18.56 0 0 1-1.28 6.72 18.08 18.08 0 0 1-3.84 5.76 19.36 19.36 0 0 1-5.92 4 22.72 22.72 0 0 1-6.72 1.28z m56.96 0a17.6 17.6 0 0 1-12.48-5.12 17.12 17.12 0 0 1-5.28-12.48 17.76 17.76 0 0 1 5.28-12.48 18.56 18.56 0 0 1 24.96 0 17.6 17.6 0 0 1-12.48 30.08z m-113.6 0a24.8 24.8 0 0 1-6.88-1.12 19.84 19.84 0 0 1-5.6-4 17.44 17.44 0 0 1 0-24.96 11.68 11.68 0 0 1 2.56-2.24 13.92 13.92 0 0 1 3.04-1.6 17.44 17.44 0 0 1 10.24-1.12l3.36 1.12a9.12 9.12 0 0 1 3.04 1.6 11.2 11.2 0 0 1 2.56 2.24 17.76 17.76 0 0 1 5.28 12.48 17.44 17.44 0 0 1-5.28 12.48 19.84 19.84 0 0 1-5.6 4 24.64 24.64 0 0 1-6.72 1.12z m170.4 0a22.72 22.72 0 0 1-6.72-1.12 16.8 16.8 0 0 1-5.76-4 16 16 0 0 1-4-5.76 22.72 22.72 0 0 1-1.28-6.72 17.12 17.12 0 0 1 5.28-12.48 12.8 12.8 0 0 1 5.76-3.68 17.44 17.44 0 0 1 19.04 3.68 17.44 17.44 0 0 1 0 24.96 20.64 20.64 0 0 1-5.76 4 22.56 22.56 0 0 1-6.56 1.12z m56.8 0a17.6 17.6 0 0 1-12.48-5.12 14.08 14.08 0 0 1-3.84-5.76 16 16 0 0 1-1.44-6.72 8.16 8.16 0 0 1 0-3.36 8.96 8.96 0 0 1 0.96-3.36 13.6 13.6 0 0 1 1.6-3.04c0-0.96 1.6-1.92 2.24-2.72a12.64 12.64 0 0 1 2.72-2.24l2.88-1.6 3.52-1.12a24.8 24.8 0 0 1 6.88 0l3.2 1.12a11.04 11.04 0 0 1 3.04 1.6 12 12 0 0 1 2.72 2.24 12.64 12.64 0 0 1 2.24 2.72 18.24 18.24 0 0 1 1.6 3.04 13.76 13.76 0 0 1 1.12 3.36 12 12 0 0 1 0 3.36 16 16 0 0 1-1.28 6.72 18.08 18.08 0 0 1-3.84 5.76 18.56 18.56 0 0 1-5.76 4 24.8 24.8 0 0 1-6.08 1.12zM483.36 608a20 20 0 0 1-6.72-1.28 17.12 17.12 0 0 1-5.76-4 17.28 17.28 0 0 1-5.12-12.48 17.6 17.6 0 0 1 5.12-12.48 22.56 22.56 0 0 1 5.76-3.84 17.6 17.6 0 0 1 24.48 16 20.16 20.16 0 0 1-1.28 6.88 19.36 19.36 0 0 1-3.84 5.6 16.8 16.8 0 0 1-5.92 4 18.56 18.56 0 0 1-6.72 1.6z m56.96 0a17.12 17.12 0 0 1-12.48-5.28 16.8 16.8 0 0 1-5.28-12.48 12.16 12.16 0 0 1 0-3.36l0.96-3.36a26.4 26.4 0 0 1 1.6-3.04 33.44 33.44 0 0 0 2.24-2.72 18.56 18.56 0 0 1 25.12 0 17.44 17.44 0 0 1 2.08 2.72l1.76 3.04c0 1.12 0 2.24 1.12 3.36s0 2.24 0 3.36a17.92 17.92 0 0 1-5.12 12.48 18.4 18.4 0 0 1-12 5.28z m56.8 0a18.56 18.56 0 0 1-6.72-1.28 13.44 13.44 0 0 1-5.76-4 16.8 16.8 0 0 1-5.28-12.48 17.28 17.28 0 0 1 5.28-12.48 13.6 13.6 0 0 1 2.72-2.24 8.96 8.96 0 0 1 3.04-1.6 17.44 17.44 0 0 1 19.04 3.84 17.92 17.92 0 0 1 5.28 12.48 17.44 17.44 0 0 1-5.28 12.48 16 16 0 0 1-12.32 5.28z m56.8 0a17.12 17.12 0 0 1-12.48-5.28 17.44 17.44 0 0 1-5.28-12.48 12.16 12.16 0 0 1 0-3.36 13.76 13.76 0 0 1 1.12-3.36 13.6 13.6 0 0 1 1.6-3.04 33.44 33.44 0 0 1 2.24-2.72s1.6-1.6 2.56-2.24l3.04-1.6a13.28 13.28 0 0 1 3.36-0.96 17.44 17.44 0 0 1 7.04 0 10.56 10.56 0 0 1 3.2 0.96l3.04 1.6 2.72 2.24a18.4 18.4 0 0 1 2.24 2.72 27.84 27.84 0 0 1 1.6 3.04 13.28 13.28 0 0 1 0.96 3.36 8.16 8.16 0 0 1 0 3.36 17.28 17.28 0 0 1-5.12 12.48 18.08 18.08 0 0 1-11.84 5.28z m-170.56-57.44a17.12 17.12 0 0 1-6.72-1.6 16 16 0 0 1-5.76-3.84 17.76 17.76 0 0 1 0-24.96l2.72-2.24 3.04-1.6a17.6 17.6 0 0 1 24.48 16 20.96 20.96 0 0 1-1.28 6.88 19.36 19.36 0 0 1-3.84 5.6 14.56 14.56 0 0 1-5.92 3.84 16 16 0 0 1-6.72 1.92z m56.96 0a17.76 17.76 0 0 1-12.48-5.28 20.64 20.64 0 0 1-4-5.76 24.96 24.96 0 0 1-1.28-6.72 17.44 17.44 0 0 1 5.28-12.48 18.24 18.24 0 0 1 24.96 0 17.28 17.28 0 0 1 5.12 12.48 16 16 0 0 1-5.12 12.48 20.64 20.64 0 0 1-12.48 5.28z m-113.6 0a17.12 17.12 0 0 1-12.48-5.28 17.76 17.76 0 0 1-4-5.76 16.96 16.96 0 0 1-1.44-6.72 17.44 17.44 0 0 1 5.28-12.48 17.12 17.12 0 0 1 2.56-2.24 25.6 25.6 0 0 0 3.04-1.76 20.48 20.48 0 0 1 10.24-0.96 14.4 14.4 0 0 1 3.52 0.96l2.88 1.76a11.68 11.68 0 0 1 2.56 2.24 17.44 17.44 0 0 1 5.28 12.48 16 16 0 0 1-1.44 6.72 16 16 0 0 1-4 5.76 14.24 14.24 0 0 1-5.6 3.68 14.56 14.56 0 0 1-6.4 1.6z m170.4 0a16 16 0 0 1-6.72-1.6 14.24 14.24 0 0 1-5.76-3.68 17.76 17.76 0 0 1-4-5.76 23.84 23.84 0 0 1-1.28-6.72 16.8 16.8 0 0 1 5.28-12.48 19.36 19.36 0 0 1 5.76-4 17.28 17.28 0 0 1 22.72 23.2 16 16 0 0 1-3.84 5.76 16 16 0 0 1-12.16 5.28z m56.8 0a18.08 18.08 0 0 1-17.76-17.76 13.92 13.92 0 0 1 1.6-6.72 12.64 12.64 0 0 1 3.84-5.76 17.12 17.12 0 0 1 2.56-2.24 25.6 25.6 0 0 0 3.04-1.76l3.36-0.96a17.44 17.44 0 0 1 7.04 0 10.56 10.56 0 0 1 3.2 0.96l3.04 1.76 2.72 2.24a12.64 12.64 0 0 1 2.24 2.72 18.24 18.24 0 0 1 1.6 3.04 16 16 0 0 1 1.28 6.72 17.6 17.6 0 0 1-5.12 12.48 18.08 18.08 0 0 1-12.64 5.28z m-170.56-56.8a20 20 0 0 1-6.72-1.28 22.56 22.56 0 0 1-5.76-3.84 18.24 18.24 0 0 1-5.12-12.64 17.6 17.6 0 0 1 5.12-12.48l2.72-2.24 3.04-1.6A17.76 17.76 0 0 1 496 464a18.24 18.24 0 0 1 5.12 12.48 18.56 18.56 0 0 1-1.28 6.72 20.96 20.96 0 0 1-3.84 5.92 18.88 18.88 0 0 1-5.92 3.84 18.56 18.56 0 0 1-6.72 0.8z m56.96 0a18.24 18.24 0 0 1-12.48-5.12 21.44 21.44 0 0 1-4-5.92 22.72 22.72 0 0 1-1.28-6.72A17.76 17.76 0 0 1 528 464a18.24 18.24 0 0 1 24.96 0 17.6 17.6 0 0 1 5.12 12.48 22.72 22.72 0 0 1-1.12 6.72 25.6 25.6 0 0 1-4 5.92 19.04 19.04 0 0 1-12.64 4.64z m56.8 0a18.56 18.56 0 0 1-6.72-1.28 16 16 0 0 1-5.76-3.84 17.76 17.76 0 0 1-5.28-12.64 9.28 9.28 0 0 1 0-3.52 10.56 10.56 0 0 1 0.96-3.2 18.24 18.24 0 0 1 1.6-3.04c0-0.96 1.6-1.92 2.24-2.72a13.76 13.76 0 0 1 2.88-2.24l2.88-1.6a17.44 17.44 0 0 1 19.04 3.84 19.52 19.52 0 0 1 2.4 2.72c0 0.96 1.12 1.92 1.6 3.04a18.72 18.72 0 0 1 0.96 3.2 14.24 14.24 0 0 1 0 3.52 18.4 18.4 0 0 1-5.28 12.64 17.92 17.92 0 0 1-11.52 5.12z m56.8 0a17.6 17.6 0 0 1-12.48-5.12 18.4 18.4 0 0 1-5.28-12.64 17.76 17.76 0 0 1 5.28-12.48 12.64 12.64 0 0 1 2.72-2.24l2.88-1.6 3.52-1.12a16 16 0 0 1 6.88 0l3.2 1.12 3.04 1.6 2.72 2.24a17.6 17.6 0 0 1 5.12 12.48 17.6 17.6 0 0 1-10.88 16 18.56 18.56 0 0 1-6.72 1.76zM483.36 436.8a20 20 0 0 1-6.72-1.28 22.56 22.56 0 0 1-5.76-3.84 17.6 17.6 0 0 1-5.12-12.64 16.96 16.96 0 0 1 5.12-12.32 16 16 0 0 1 5.76-3.84 17.76 17.76 0 0 1 19.36 3.84 17.6 17.6 0 0 1 5.12 12.32 20.16 20.16 0 0 1-1.28 6.88A18.08 18.08 0 0 1 496 432a18.88 18.88 0 0 1-5.92 3.84 18.56 18.56 0 0 1-6.72 0.96z m56.96 0A17.6 17.6 0 0 1 528 432a17.12 17.12 0 0 1-5.28-12.64 12.16 12.16 0 0 1 0-3.36l0.96-3.36 1.6-3.04a33.44 33.44 0 0 0 2.24-2.72 18.56 18.56 0 0 1 25.12 0l2.08 2.72 1.76 3.04c0 1.12 0 2.24 1.12 3.36s0 2.24 0 3.36a18.4 18.4 0 0 1-5.12 12.64 18.88 18.88 0 0 1-12.16 4.8z m-113.6 0a20.16 20.16 0 0 1-6.88-1.28 19.36 19.36 0 0 1-5.6-3.84 17.6 17.6 0 0 1 0-25.12 11.2 11.2 0 0 1 2.56-2.08 21.44 21.44 0 0 1 6.4-2.72 17.6 17.6 0 0 1 21.28 17.28 17.76 17.76 0 0 1-5.28 12.48 20.16 20.16 0 0 1-5.76 3.84 16.96 16.96 0 0 1-6.72 1.44z m170.4 0a18.56 18.56 0 0 1-6.72-1.28 16 16 0 0 1-5.76-3.84 16 16 0 0 1-4-5.76 24.96 24.96 0 0 1-1.28-6.88 8.16 8.16 0 0 1 0-3.36 13.28 13.28 0 0 1 0.96-3.36 27.84 27.84 0 0 1 1.6-3.04c0-0.96 1.6-1.76 2.24-2.56a14.08 14.08 0 0 1 5.76-3.84 17.12 17.12 0 0 1 19.04 3.84 16 16 0 0 1 5.28 12.32 17.12 17.12 0 0 1-1.44 6.88 14.08 14.08 0 0 1-3.84 5.76 16.96 16.96 0 0 1-11.84 5.12z m56.8 0a17.6 17.6 0 0 1-12.48-5.12 14.08 14.08 0 0 1-3.84-5.76 17.12 17.12 0 0 1-1.44-6.88 16.96 16.96 0 0 1 5.12-12.32 17.6 17.6 0 0 1 16-4.96 10.88 10.88 0 0 1 3.2 1.12 9.12 9.12 0 0 1 3.04 1.6 12 12 0 0 1 2.72 2.24 16 16 0 0 1 5.12 12.32 20 20 0 0 1-1.12 6.88 18.56 18.56 0 0 1-4 5.76 18.08 18.08 0 0 1-5.76 3.84 17.12 17.12 0 0 1-6.56 1.28z m56.96-71.04H312.96a17.76 17.76 0 1 1 0-35.36h397.76a17.76 17.76 0 0 1 0 35.36z m-497.44 384a19.84 19.84 0 0 1-7.84-1.76 17.76 17.76 0 0 1-7.84-23.84l16-31.2h-28.64a17.44 17.44 0 0 1-15.04-8.32 17.92 17.92 0 0 1-0.8-17.28l28.48-56.64a17.6 17.6 0 1 1 32 16l-16 32h28.16a17.76 17.76 0 0 1 16 25.6l-28.48 56.8a17.44 17.44 0 0 1-16 8.16z m596.8 0a18.72 18.72 0 0 1-7.84-1.76 17.92 17.92 0 0 1-8-23.84l16-31.2h-28.48a17.28 17.28 0 0 1-15.04-8.32 17.6 17.6 0 0 1 0-17.28l28.48-56.64a17.6 17.6 0 1 1 32 16l-16 32h28.32a17.92 17.92 0 0 1 15.04 8.48 17.28 17.28 0 0 1 0 17.12l-28.32 56.8a17.76 17.76 0 0 1-16.16 8.16z"  p-id="4678"></path></svg>