<?xml version="1.0" standalone="no"?><!DOCTYPE svg PUBLIC "-//W3C//DTD SVG 1.1//EN" "http://www.w3.org/Graphics/SVG/1.1/DTD/svg11.dtd"><svg t="1703476535175" class="icon" viewBox="0 0 1024 1024" version="1.1" xmlns="http://www.w3.org/2000/svg" p-id="10687" xmlns:xlink="http://www.w3.org/1999/xlink" width="200" height="200"><path d="M512 967.111111a453.219556 453.219556 0 0 1-277.518222-94.407111 32.512 32.512 0 1 1 39.651555-51.484444A388.266667 388.266667 0 0 0 512 902.101333a388.266667 388.266667 0 0 0 240.753778-83.128889 32.483556 32.483556 0 0 1 52.352 29.44 32.512 32.512 0 0 1-12.216889 21.703112A453.276444 453.276444 0 0 1 512.711111 967.111111H512z m259.712-227.555555a65.137778 65.137778 0 1 1 130.275556 0 65.137778 65.137778 0 0 1-130.275556 0zM122.026667 739.555556a65.137778 65.137778 0 1 1 130.275555 0 65.137778 65.137778 0 0 1-130.275555 0z m183.296-20.807112A290.360889 290.360889 0 0 1 219.719111 512a290.332444 290.332444 0 0 1 85.603556-206.663111A290.360889 290.360889 0 0 1 512 219.719111a290.360889 290.360889 0 0 1 206.663111 85.603556A290.360889 290.360889 0 0 1 804.280889 512a290.375111 290.375111 0 0 1-85.603556 206.677333A290.360889 290.360889 0 0 1 512 804.295111a290.332444 290.332444 0 0 1-206.677333-85.617778v0.071111z m173.952-332.8L417.649778 549.262222a6.542222 6.542222 0 0 0 6.087111 8.832h47.445333a6.485333 6.485333 0 0 1 6.058667 8.917334l-41.102222 102.997333a6.485333 6.485333 0 0 0 2.702222 8.021333 6.485333 6.485333 0 0 0 8.348444-1.408l143.786667-170.552889a6.542222 6.542222 0 0 0-4.963556-10.752h-48a6.456889 6.456889 0 0 1-5.077333-10.382222l69.034667-92.743111a6.471111 6.471111 0 0 0 0.611555-6.840889 6.471111 6.471111 0 0 0-5.816889-3.584h-111.402666a6.456889 6.456889 0 0 0-6.072889 4.124445l-0.014222 0.056888z m423.921777 289.536a32.483556 32.483556 0 0 1-20.679111-41.045333 389.390222 389.390222 0 0 0 19.569778-122.311111A390.286222 390.286222 0 0 0 632.832 141.098667a32.512 32.512 0 0 1-20.878222-40.96 32.512 32.512 0 0 1 40.96-20.835556A455.239111 455.239111 0 0 1 967.111111 512a454.542222 454.542222 0 0 1-22.840889 142.734222 32.526222 32.526222 0 0 1-41.073778 20.693334v0.056888zM78.833778 652.117333A454.769778 454.769778 0 0 1 56.888889 512 455.253333 455.253333 0 0 1 372.423111 78.72a32.497778 32.497778 0 1 1 19.911111 61.880889A390.243556 390.243556 0 0 0 121.912889 512a389.688889 389.688889 0 0 0 18.816 120.035556 32.497778 32.497778 0 0 1-30.904889 42.524444 32.526222 32.526222 0 0 1-30.990222-22.513778v0.071111zM446.862222 122.083556a65.123556 65.123556 0 1 1 130.275556-0.071112 65.137778 65.137778 0 1 1-130.275556 0v0.071112z" p-id="10688"></path></svg>