<?xml version="1.0" standalone="no"?><!DOCTYPE svg PUBLIC "-//W3C//DTD SVG 1.1//EN" "http://www.w3.org/Graphics/SVG/1.1/DTD/svg11.dtd"><svg t="1703745946732" class="icon" viewBox="0 0 1024 1024" version="1.1" xmlns="http://www.w3.org/2000/svg" p-id="4301" xmlns:xlink="http://www.w3.org/1999/xlink" width="200" height="200"><path d="M896 740.48l48.64 14.72c-3.84 12.8-8.96 25.6-14.72 37.76l-46.08-23.04c5.12-9.6 8.96-19.2 12.16-29.44zM320 742.4h51.2v51.2H320zM953.6 693.76c0 7.04-0.64 14.08-1.28 20.48l-50.56-4.48v-16-14.72l51.2-4.48c0.64 6.4 0.64 12.8 0.64 19.2zM710.4 757.76v-38.4h-38.4c-14.08 0-25.6-11.52-25.6-25.6s11.52-25.6 25.6-25.6h38.4v-38.4c0-14.08 11.52-25.6 25.6-25.6s25.6 11.52 25.6 25.6v38.4h38.4c14.08 0 25.6 11.52 25.6 25.6s-11.52 25.6-25.6 25.6h-38.4v38.4c0 14.08-11.52 25.6-25.6 25.6s-25.6-11.52-25.6-25.6zM736 352v-64h-448v128h256c17.92 0 32 14.08 32 32s-14.08 32-32 32h-256c-35.2 0-64-28.8-64-64v-128c0-35.2 28.8-64 64-64h448c35.2 0 64 28.8 64 64v64c0 17.92-14.08 32-32 32s-32-14.08-32-32zM885.76 535.68c9.6 8.96 17.92 19.2 25.6 29.44l-40.96 30.72c-5.76-8.32-12.8-16-19.84-23.04l35.2-37.12zM826.88 554.24c-3.84-2.56-8.32-5.12-12.8-7.68l23.68-44.8c6.4 3.2 11.52 6.4 17.28 9.6l-28.16 42.88zM320 678.4h51.2v51.2H320z" p-id="4302"></path><path d="M867.2 796.16l40.32 32s-6.4 7.04-9.6 10.88a217.408 217.408 0 1 1-236.16-349.44l-9.6-25.6c-3.2-9.6 4.48-18.56 14.08-17.28l106.24 18.56c9.6 1.92 14.08 13.44 7.68 21.12l-69.12 82.56c-6.4 7.68-18.56 5.76-21.76-3.84l-10.24-27.52c-64 23.04-109.44 84.48-109.44 156.16 0 92.16 74.24 166.4 166.4 166.4 47.36 0 90.24-19.84 120.96-51.84 3.2-3.84 7.04-7.68 10.24-12.16zM885.76 621.44l46.08-22.4c5.76 11.52 10.24 23.68 14.08 36.48l-49.28 14.08c-3.2-10.24-6.4-19.2-10.88-28.16z" p-id="4303"></path><path d="M480 576H192v224c0 17.92 14.08 32 32 32h256c17.92 0 32 14.08 32 32s-14.08 32-32 32h-256c-53.12 0-96-42.88-96-96v-576C128 170.88 170.88 128 224 128H832c35.2 0 64 28.8 64 64v192c0 17.92-14.08 32-32 32S832 401.92 832 384V192H224c-17.92 0-32 14.08-32 32V512h288c17.92 0 32 14.08 32 32s-14.08 32-32 32z" p-id="4304"></path><path d="M256 678.4h51.2v51.2H256zM320 614.4h51.2v51.2H320zM256 614.4h51.2v51.2H256zM256 742.4h51.2v51.2H256z" p-id="4305"></path></svg>