<?xml version="1.0" standalone="no"?><!DOCTYPE svg PUBLIC "-//W3C//DTD SVG 1.1//EN" "http://www.w3.org/Graphics/SVG/1.1/DTD/svg11.dtd"><svg t="1704682574777" class="icon" viewBox="0 0 1024 1024" version="1.1" xmlns="http://www.w3.org/2000/svg" p-id="20967" width="128" height="128" xmlns:xlink="http://www.w3.org/1999/xlink"><path d="M659.499267 568.471013V147.519573a147.519573 147.519573 0 0 0-295.039146 0v420.95144a251.651036 251.651036 0 1 0 295.039146 0zM511.979694 954.538413a182.230061 182.230061 0 0 1-106.734749-329.749633l28.636152-20.826293V147.519573a78.098597 78.098597 0 0 1 156.197195 0v456.356138L618.714444 624.78878A182.230061 182.230061 0 0 1 511.979694 954.538413z" p-id="20968"></path><path d="M546.690182 664.966169V329.749634h-69.420975v335.216535a112.809085 112.809085 0 1 0 69.420975 0zM978.662202 380.860827c-76.970507-90.420821-84.172933-123.222232-84.867142-127.647819-0.607434 4.512363-7.80986 37.226998-84.780367 127.647819-89.98694 105.693435-37.921208 237.853617 84.172933 243.927953h1.301643c122.007364-6.161112 174.073096-138.234517 84.172933-243.927953z m-69.420975 197.242347a15.272615 15.272615 0 0 1-14.92551 11.975118 16.227153 16.227153 0 0 1-3.471049 0 110.63968 110.63968 0 0 1-87.817534-118.883421 15.185838 15.185838 0 1 1 30.284901 2.776839c0 3.037168-4.946245 70.809395 64.301178 86.77622a15.185838 15.185838 0 0 1 11.541237 17.355244zM250.522945 113.937176C204.27122 59.702039 200.019186 40.003837 199.585305 37.400551c0 2.690063-4.685916 22.301488-50.850865 76.536625C94.759632 177.370592 125.912294 256.684057 199.585305 260.328658h0.780986c72.805248-3.731377 104.044687-82.958066 50.156654-146.391482zM86.776219 401.860672c-0.433881 2.950391-5.206573 24.817999-56.491318 85.040695C-29.764243 557.363657 4.946245 645.528296 86.776219 649.520002h0.867763c81.396094-4.078482 116.106582-92.156345 56.144214-162.618635-51.805403-60.222696-56.578095-82.090304-57.011977-85.040695z" p-id="20969"></path></svg>