<?xml version="1.0" standalone="no"?><!DOCTYPE svg PUBLIC "-//W3C//DTD SVG 1.1//EN" "http://www.w3.org/Graphics/SVG/1.1/DTD/svg11.dtd"><svg t="1703759092239" class="icon" viewBox="0 0 1024 1024" version="1.1" xmlns="http://www.w3.org/2000/svg" p-id="13089" xmlns:xlink="http://www.w3.org/1999/xlink" width="200" height="200"><path d="M505.895564 69.818182C695.521745 69.818182 837.229382 137.518545 837.229382 198.074182 837.229382 258.583273 695.521745 326.306909 505.895564 326.306909 316.269382 326.306909 174.561745 258.583273 174.561745 198.074182 174.561745 137.518545 316.269382 69.818182 505.895564 69.818182M505.895564 396.125091C734.596655 396.125091 907.047564 310.970182 907.047564 198.074182 907.047564 85.154909 734.596655 0 505.895564 0 277.194473 0 104.743564 85.154909 104.743564 198.074182 104.743564 310.970182 277.194473 396.125091 505.895564 396.125091ZM872.145455 336.363055C852.875636 336.363055 837.236364 352.002327 837.236364 371.272145 837.236364 404.924509 720.290909 470.483782 505.902545 470.483782 291.514182 470.483782 174.545455 404.924509 174.545455 371.272145 174.545455 352.002327 158.929455 336.363055 139.636364 336.363055 120.366545 336.363055 104.727273 352.002327 104.727273 371.272145 104.727273 482.236509 306.548364 540.301964 505.902545 540.301964 705.233455 540.301964 907.054545 482.236509 907.054545 371.272145 907.054545 352.002327 891.415273 336.363055 872.145455 336.363055ZM872.145455 497.978182C852.875636 497.978182 837.236364 513.617455 837.236364 532.887273 837.236364 567.307636 720.290909 634.356364 505.902545 634.356364 291.514182 634.356364 174.545455 567.307636 174.545455 532.887273 174.545455 513.617455 158.929455 497.978182 139.636364 497.978182 120.366545 497.978182 104.727273 513.617455 104.727273 532.887273 104.727273 644.130909 311.412364 704.174545 505.902545 704.174545 700.369455 704.174545 907.054545 644.130909 907.054545 532.887273 907.054545 513.617455 891.415273 497.978182 872.145455 497.978182ZM872.145455 657.296291C852.875636 657.296291 837.236364 672.935564 837.236364 692.205382 837.236364 728.790109 711.447273 795.978473 505.902545 795.978473 300.357818 795.978473 174.545455 728.790109 174.545455 692.205382 174.545455 672.935564 158.929455 657.296291 139.636364 657.296291 120.366545 657.296291 104.727273 672.935564 104.727273 692.205382 104.727273 804.961745 311.412364 865.796655 505.902545 865.796655 700.369455 865.796655 907.054545 804.961745 907.054545 692.205382 907.054545 672.935564 891.415273 657.296291 872.145455 657.296291ZM872.145455 808.636509C852.875636 808.636509 837.236364 824.275782 837.236364 843.5456 837.236364 881.526691 708.189091 954.184145 505.902545 954.184145 303.592727 954.184145 174.545455 881.526691 174.545455 843.5456 174.545455 824.275782 158.929455 808.636509 139.636364 808.636509 120.366545 808.636509 104.727273 824.275782 104.727273 843.5456 104.727273 954.998691 312.971636 1024.002327 505.902545 1024.002327 698.833455 1024.002327 907.054545 954.998691 907.054545 843.5456 907.054545 824.275782 891.415273 808.636509 872.145455 808.636509Z"  p-id="13090"></path></svg>