<?xml version="1.0" standalone="no"?><!DOCTYPE svg PUBLIC "-//W3C//DTD SVG 1.1//EN" "http://www.w3.org/Graphics/SVG/1.1/DTD/svg11.dtd"><svg t="1703755352822" class="icon" viewBox="0 0 1032 1024" version="1.1" xmlns="http://www.w3.org/2000/svg" p-id="4360" xmlns:xlink="http://www.w3.org/1999/xlink" width="201.5625" height="200"><path d="M723.225575 426.413452c-164.083086 0-297.780415 132.684471-297.780416 297.780415s132.684471 297.780415 297.780416 297.780416 297.780415-132.684471 297.780415-297.780416S887.308661 426.413452 723.225575 426.413452z m-26.334323 464.902077c-10.128586 10.128586-27.347181 10.128586-38.488625 0l-21.27003-21.270029L510.525278 743.43818c-10.128586-10.128586-10.128586-27.347181 0-38.488625l21.27003-21.27003c10.128586-10.128586 27.347181-10.128586 38.488625 0l107.363007 107.363007 202.571711-202.571711c10.128586-10.128586 27.347181-10.128586 38.488625 0l21.27003 21.27003c10.128586 10.128586 10.128586 27.347181 0 38.488625l-243.086054 243.086053zM262.374932 175.22453h418.310583c29.372898 0 52.668645-23.295747 52.668645-52.668645 0-29.372898-23.295747-52.668645-52.668645-52.668645H557.116772c-8.102868-40.514342-43.552918-69.88724-85.080119-69.88724-41.527201 0-76.97725 29.372898-85.080119 69.88724H262.374932c-29.372898 0-52.668645 23.295747-52.668645 52.668645 0 29.372898 23.295747 52.668645 52.668645 52.668645z"  p-id="4361"></path><path d="M340.365041 809.273986c-5.064293-2.025717-10.128586-5.064293-15.192879-10.128585-8.102868-8.102868-13.167161-20.257171-13.167161-32.411474 0-12.154303 5.064293-23.295747 13.167161-32.411474 2.025717-2.025717 4.051434-3.038576 5.064293-4.051434v-7.09001c0-33.424332 4.051434-64.822948 12.154303-95.208704-6.077151-2.025717-12.154303-6.077151-17.218596-10.128586-8.102868-8.102868-13.167161-20.257171-13.167161-32.411474 0-12.154303 5.064293-23.295747 13.167161-32.411473 8.102868-8.102868 20.257171-13.167161 32.411474-13.167162h19.244313c18.231454-33.424332 40.514342-63.810089 66.848664-91.15727H358.596495c-12.154303 0-23.295747-5.064293-32.411474-13.167161-8.102868-8.102868-13.167161-20.257171-13.167161-32.411474 0-12.154303 5.064293-23.295747 13.167161-32.411474 8.102868-8.102868 20.257171-13.167161 32.411474-13.167161h224.854599c43.552918-16.205737 90.144411-25.321464 139.774481-25.321464 81.028684 0 156.993076 24.308605 219.790306 66.848665V203.58457c0-24.308605-10.128586-47.604352-27.347181-64.822948-17.218595-17.218595-40.514342-26.334322-64.822947-26.334322h-91.15727v22.282888c0 18.231454-7.09001 35.450049-20.257171 48.617211-13.167161 13.167161-30.385757 20.257171-48.617211 20.257171H252.246346c-37.475767 0-68.874382-30.385757-68.874382-67.861524v-22.282888h-91.15727c-24.308605 0-47.604352 9.115727-64.822947 26.334323-17.218595 17.218595-27.347181 40.514342-27.347181 64.822947v728.245302c0 24.308605 10.128586 47.604352 26.334322 64.822948 17.218595 17.218595 40.514342 26.334322 64.822948 26.334322H470.010936c-63.810089-55.707221-110.401583-129.645895-129.645895-214.726014z m-87.105836-10.128585c-8.102868 8.102868-20.257171 13.167161-32.411474 13.167161-12.154303 0-23.295747-5.064293-32.411474-13.167161-8.102868-8.102868-13.167161-20.257171-13.167161-32.411474 0-12.154303 5.064293-23.295747 13.167161-32.411474 8.102868-8.102868 20.257171-13.167161 32.411474-13.167161 12.154303 0 23.295747 5.064293 32.411474 13.167161 8.102868 8.102868 13.167161 20.257171 13.167161 32.411474 0 13.167161-5.064293 24.308605-13.167161 32.411474z m-20.257171-170.160238c-20.257171 5.064293-41.527201-3.038576-51.655787-21.270029-8.102868-14.18002-8.102868-31.398615 0-45.578635s23.295747-23.295747 39.501484-23.295747c12.154303 0 23.295747 5.064293 32.411474 13.167161 8.102868 8.102868 13.167161 20.257171 13.167161 32.411474 0 21.27003-14.18002 39.501484-33.424332 44.565776z m0-182.31454c-20.257171 5.064293-41.527201-3.038576-51.655787-21.27003-8.102868-14.18002-8.102868-31.398615 0-45.578635s23.295747-22.282888 39.501484-22.282888c25.321464 0 45.578635 20.257171 45.578635 45.578635 0 20.257171-14.18002 38.488625-33.424332 43.552918z"  p-id="4362"></path></svg>