<?xml version="1.0" standalone="no"?><!DOCTYPE svg PUBLIC "-//W3C//DTD SVG 1.1//EN" "http://www.w3.org/Graphics/SVG/1.1/DTD/svg11.dtd"><svg t="1704335978090" class="icon" viewBox="0 0 1024 1024" version="1.1" xmlns="http://www.w3.org/2000/svg" p-id="6339" width="128" height="128" xmlns:xlink="http://www.w3.org/1999/xlink"><path d="M574.8224 51.2a20.9408 20.9408 0 0 1 20.992 20.992v62.7712h356.0448a20.992 20.992 0 0 1 20.5824 17.2032l0.3584 3.7376v41.9328a20.9408 20.9408 0 0 1-20.992 20.9408h-62.7712v670.208h62.8224a20.9408 20.9408 0 0 1 20.9408 20.992v41.8816a20.9408 20.9408 0 0 1-20.992 20.9408H72.192a20.9408 20.9408 0 0 1-20.992-20.992v-41.8304a20.992 20.992 0 0 1 20.992-20.992h62.7712V218.8288H72.192A20.992 20.992 0 0 1 51.2 197.7856v-41.8816a20.9408 20.9408 0 0 1 20.992-20.9408h356.0448V72.192a20.992 20.992 0 0 1 17.152-20.5824L449.1776 51.2h125.6448z m-61.952 257.3312l-1.8944 1.8944-201.984 273.5616a9.216 9.216 0 0 0-1.3824 8.0896 8.2432 8.2432 0 0 0 5.4272 5.6832l2.1504 0.3072h152.4736c4.1984 0 7.68 3.5328 7.936 8.0384l-0.1536 2.304-27.5456 149.2992a8.96 8.96 0 0 0 3.328 8.8064c2.6112 1.9456 6.0416 1.9968 8.704 0.1024l1.9456-1.8432 201.984-273.6128a9.216 9.216 0 0 0 1.3312-8.0896 8.2944 8.2944 0 0 0-5.4272-5.632l-2.0992-0.3072H505.1904c-4.1984 0-7.68-3.5328-7.9872-8.0384l0.2048-2.3552 27.5456-149.248a9.0112 9.0112 0 0 0-3.328-8.8064 7.424 7.424 0 0 0-8.7552-0.1536z"  p-id="6340"></path></svg>