<?xml version="1.0" standalone="no"?><!DOCTYPE svg PUBLIC "-//W3C//DTD SVG 1.1//EN" "http://www.w3.org/Graphics/SVG/1.1/DTD/svg11.dtd"><svg t="1703833133884" class="icon" viewBox="0 0 1024 1024" version="1.1" xmlns="http://www.w3.org/2000/svg" p-id="22201" xmlns:xlink="http://www.w3.org/1999/xlink" width="200" height="200"><path d="M230.1952 938.5984a143.872 143.872 0 0 1-143.872-143.872V230.1952a143.872 143.872 0 0 1 143.872-143.7696h564.5312a143.8208 143.8208 0 0 1 143.872 143.7696v564.6336a143.8208 143.8208 0 0 1-143.872 143.8208H230.1952z m759.552-143.872V230.1952A195.0208 195.0208 0 0 0 794.7264 35.1744H230.1952a195.072 195.072 0 0 0-195.072 194.9696v564.6336a195.072 195.072 0 0 0 195.072 195.0208h564.5312a195.0208 195.0208 0 0 0 195.072-195.072z" p-id="22202"></path><path d="M512.4608 812.6464a300.1856 300.1856 0 1 1 0-600.3712 300.1856 300.1856 0 0 1 0 600.3712z m0-636.2112a336.0256 336.0256 0 1 0 0 672.0512 336.0256 336.0256 0 0 0 0-672.0512z"  p-id="22203"></path><path d="M512.4608 714.496a202.0352 202.0352 0 1 1 0-404.0704 202.0352 202.0352 0 0 1 0 404.0704z m0-439.9104a237.8752 237.8752 0 1 0 0 475.7504 237.8752 237.8752 0 0 0 0-475.7504z"  p-id="22204"></path><path d="M194.048 796.16a17.92 17.92 0 1 0 25.344 25.3952L833.9456 207.0016a17.92 17.92 0 0 0-25.344-25.344L194.048 796.2112z"  p-id="22205"></path><path d="M808.6016 821.5552a17.92 17.92 0 0 0 25.344-25.344L219.392 181.6576a17.92 17.92 0 0 0-25.344 25.344l614.5536 614.5536z"  p-id="22206"></path></svg>