<?xml version="1.0" standalone="no"?><!DOCTYPE svg PUBLIC "-//W3C//DTD SVG 1.1//EN" "http://www.w3.org/Graphics/SVG/1.1/DTD/svg11.dtd"><svg t="1704679876485" class="icon" viewBox="0 0 1024 1024" version="1.1" xmlns="http://www.w3.org/2000/svg" p-id="12408" width="128" height="128" xmlns:xlink="http://www.w3.org/1999/xlink"><path d="M825.681013 0H198.318987C92.03038 0 6.481013 85.549367 6.481013 191.837975v627.362025c0 103.696203 85.549367 191.837975 191.837974 191.837975h259.240507c20.739241 0 36.293671-15.55443 36.293671-36.293671s-15.55443-36.293671-36.293671-36.293671h-259.240507c-64.810127 0-119.250633-51.848101-119.250633-119.250633V191.837975c0-64.810127 51.848101-116.658228 119.250633-116.658228h627.362026c64.810127 0 119.250633 51.848101 119.250633 116.658228V518.481013c-20.739241-12.962025-46.663291-20.739241-75.179747-20.739241h-121.843038c-132.212658 0-241.093671 106.288608-241.093671 238.501266v163.321519c0 67.402532 54.440506 121.843038 121.843038 121.843038h114.065823c150.359494 0 274.794937-124.435443 274.794936-274.794937V191.837975C1017.518987 85.549367 929.377215 0 825.681013 0z m-82.956962 948.820253H628.658228c-25.924051 0-49.255696-20.739241-49.255696-49.255696v-163.321519c0-90.734177 75.179747-165.913924 165.913924-165.913924h121.843038c41.478481 0 75.179747 33.701266 75.179747 75.179747v101.103797c0 111.473418-90.734177 202.207595-199.61519 202.207595z" p-id="12409"></path><path d="M817.903797 604.03038h-75.179746l-75.179747 176.283544h72.587342L690.875949 933.265823l165.913924-215.16962h-88.141772zM584.587342 469.225316c2.592405 10.36962 12.962025 18.146835 23.331645 18.146836 12.962025 0 20.739241-7.777215 23.331646-18.146836l41.478481-134.805063 33.701266 62.217722c5.18481 7.777215 12.962025 12.962025 20.73924 12.962025h116.658228c12.962025 0 23.331646-10.36962 23.331646-23.331646s-10.36962-23.331646-23.331646-23.331645h-101.103797l-51.848102-103.696203c-5.18481-7.777215-15.55443-12.962025-23.331645-12.962025-10.36962 0-18.146835 7.777215-20.739241 18.146835l-31.10886 101.103798-41.478481-186.653165c-2.592405-10.36962-10.36962-18.146835-23.331646-18.146835-10.36962 0-20.739241 5.18481-25.924051 15.55443l-127.027848 349.974684-49.255696-75.179747c-5.18481-7.777215-12.962025-12.962025-23.331646-10.36962-7.777215 0-15.55443 5.18481-20.73924 12.962025l-82.956962 176.283544H133.508861c-12.962025 0-23.331646 10.36962-23.331646 23.331646s10.36962 23.331646 23.331646 23.331646h103.696202c10.36962 0 18.146835-5.18481 23.331646-12.962026l69.994937-150.359493 51.848101 80.364556c5.18481 7.777215 12.962025 12.962025 23.331645 10.369621 10.36962 0 18.146835-7.777215 20.739241-15.554431l114.065823-316.273417 44.070886 197.022784z"  p-id="12410"></path></svg>