<?xml version="1.0" standalone="no"?><!DOCTYPE svg PUBLIC "-//W3C//DTD SVG 1.1//EN" "http://www.w3.org/Graphics/SVG/1.1/DTD/svg11.dtd"><svg t="1704682546895" class="icon" viewBox="0 0 1024 1024" version="1.1" xmlns="http://www.w3.org/2000/svg" p-id="19857" width="128" height="128" xmlns:xlink="http://www.w3.org/1999/xlink"><path d="M477.269207 0h69.420975v147.519573h-69.420975zM0 477.269207h147.519573v69.420975H0zM118.501605 851.942889l104.313694-104.305016 49.089307 49.08063-104.305016 104.313693zM118.510283 163.260779l49.089307-49.08063 104.313693 104.305016-49.089307 49.089307zM462.343697 733.692935A234.295792 234.295792 0 0 1 538.01256 277.683902a229.349548 229.349548 0 0 1 34.710488 2.603287V199.585305c0-5.206573 0-10.32637 0.69421-15.446167A340.423109 340.423109 0 0 0 538.01256 182.230061a329.749634 329.749634 0 0 0-72.024262 651.515855 311.526628 311.526628 0 0 1-3.644601-100.052981zM919.827925 568.471013V147.519573a147.519573 147.519573 0 0 0-295.039145 0v420.95144a251.651036 251.651036 0 1 0 295.039145 0zM772.308353 954.538413a182.230061 182.230061 0 0 1-106.73475-329.749633l28.636152-20.826293V147.519573a78.098597 78.098597 0 0 1 156.197195 0v456.356138l28.636152 20.826292A182.230061 182.230061 0 0 1 772.308353 954.538413z" p-id="19858"></path><path d="M807.01884 664.966169V338.427256h-69.420975v326.538913a112.809085 112.809085 0 1 0 69.420975 0z" p-id="19859"></path></svg>