<?xml version="1.0" standalone="no"?><!DOCTYPE svg PUBLIC "-//W3C//DTD SVG 1.1//EN" "http://www.w3.org/Graphics/SVG/1.1/DTD/svg11.dtd"><svg t="1703573395302" class="icon" viewBox="0 0 1024 1024" version="1.1" xmlns="http://www.w3.org/2000/svg" p-id="27396" xmlns:xlink="http://www.w3.org/1999/xlink" width="200" height="200"><path d="M841.403392 173.461504a20.9664 20.9664 0 0 0-14.831616-6.144H197.428224c-11.583488 0-20.97152 9.388032-20.97152 20.97152v679.08608a20.968448 20.968448 0 0 0 20.97152 20.97152H826.5728a20.979712 20.979712 0 0 0 14.831616-6.139904 20.98176 20.98176 0 0 0 6.139904-14.831616v-679.08608c0-5.563392-2.208768-10.89536-6.140928-14.82752z m-581.059584 77.744128h503.315456v410.907648H260.343808V251.205632zM297.984 800.256c-22.621184 0-40.96-18.338816-40.96-40.96s18.338816-40.96 40.96-40.96 40.96 18.338816 40.96 40.96-18.338816 40.96-40.96 40.96z m142.336 0c-22.621184 0-40.96-18.338816-40.96-40.96s18.338816-40.96 40.96-40.96 40.96 18.338816 40.96 40.96-18.338816 40.96-40.96 40.96z m142.336 0c-22.621184 0-40.96-18.338816-40.96-40.96s18.338816-40.96 40.96-40.96 40.96 18.338816 40.96 40.96-18.338816 40.96-40.96 40.96z m142.336 0c-22.621184 0-40.96-18.338816-40.96-40.96s18.338816-40.96 40.96-40.96 40.96 18.338816 40.96 40.96-18.338816 40.96-40.96 40.96z" p-id="27397"></path><path d="M302.2848 325.9136h41.944064v20.97152H302.2848zM302.2848 284.9536h41.944064v20.97152H302.2848zM302.2848 367.857664h41.944064v20.97152H302.2848zM302.2848 409.801728h41.944064v20.97152H302.2848zM302.2848 579.785728h41.944064v20.97152H302.2848zM302.2848 621.729792h41.944064v20.967424H302.2848zM302.2848 495.8976h41.944064v20.97152H302.2848zM302.2848 451.745792h41.944064v20.967424H302.2848zM302.2848 537.841664h41.944064v20.97152H302.2848zM679.773184 579.785728h41.94304v20.97152h-41.94304zM679.773184 621.729792h41.94304v20.967424h-41.94304zM679.773184 366.833664h41.94304v20.97152h-41.94304zM679.773184 284.9536h41.94304v20.97152h-41.94304zM679.773184 324.8896h41.94304v20.97152h-41.94304zM679.773184 408.777728h41.94304v20.97152h-41.94304zM679.773184 537.841664h41.94304v20.97152h-41.94304zM679.773184 495.8976h41.94304v20.97152h-41.94304zM679.773184 450.721792h41.94304v20.967424h-41.94304zM386.172928 628.405248H637.82912V283.9296H386.172928v344.475648zM615.424 455.01952l-53.665792 63.044608 14.067712-39.076864h-28.135424l44.808192-62.002176-10.420224 38.035456H615.424z m-45.850624-19.79904L478.91456 541.510656l23.446528-65.649664h-46.892032l75.288576-104.986624-17.45408 64.347136h56.269824z m-116.189184-39.59808l-10.420224 38.035456h33.345536l-53.665792 63.044608 14.067712-39.076864H408.576l44.808192-62.0032z" p-id="27398"></path></svg>