<?xml version="1.0" standalone="no"?><!DOCTYPE svg PUBLIC "-//W3C//DTD SVG 1.1//EN" "http://www.w3.org/Graphics/SVG/1.1/DTD/svg11.dtd"><svg t="1703573252288" class="icon" viewBox="0 0 1024 1024" version="1.1" xmlns="http://www.w3.org/2000/svg" p-id="22414" xmlns:xlink="http://www.w3.org/1999/xlink" width="200" height="200"><path d="M918.4 672l-51.2 51.2c-19.2 19.2-44.8 25.6-70.4 19.2l41.6-41.6h3.2l51.2-51.2c12.8-12.8 12.8-38.4 0-51.2-12.8-12.8-38.4-12.8-51.2 0l-51.2 51.2-44.8 44.8c-6.4-25.6 0-51.2 19.2-70.4l51.2-51.2c28.8-28.8 73.6-28.8 102.4 0 28.8 25.6 28.8 70.4 0 99.2z m-211.2 134.4c-3.2 3.2-9.6 6.4-12.8 6.4-9.6 0-19.2-9.6-19.2-19.2 0-6.4 3.2-9.6 6.4-12.8l121.6-121.6c3.2-3.2 9.6-6.4 12.8-6.4 9.6 0 19.2 9.6 19.2 19.2 0 6.4-3.2 9.6-6.4 12.8l-121.6 121.6zM672 768l-51.2 51.2c-12.8 12.8-12.8 38.4 0 51.2 12.8 12.8 38.4 12.8 51.2 0l51.2-51.2 44.8-44.8c6.4 25.6 0 51.2-19.2 70.4L697.6 896c-28.8 28.8-73.6 28.8-102.4 0-28.8-28.8-28.8-73.6 0-102.4l51.2-51.2c19.2-19.2 44.8-25.6 70.4-19.2L672 768zM486.4 192h64v128h-64z" p-id="22415"></path><path d="M515.2 835.2c0-195.2 156.8-352 352-352 19.2 0 38.4 3.2 57.6 6.4V96c0-19.2-12.8-32-32-32H128c-19.2 0-32 12.8-32 32v832c0 19.2 12.8 32 32 32h412.8c-16-38.4-25.6-80-25.6-124.8zM160 131.2h704V384H160V131.2z m32 531.2L310.4 480h102.4L320 617.6l128 25.6-179.2 246.4 51.2-182.4-128-44.8z" p-id="22416"></path><path d="M294.4 192h64v128h-64zM678.4 192h64v128h-64z" p-id="22417"></path></svg>