<?xml version="1.0" standalone="no"?><!DOCTYPE svg PUBLIC "-//W3C//DTD SVG 1.1//EN" "http://www.w3.org/Graphics/SVG/1.1/DTD/svg11.dtd"><svg t="1703759426486" class="icon" viewBox="0 0 1024 1024" version="1.1" xmlns="http://www.w3.org/2000/svg" p-id="15214" xmlns:xlink="http://www.w3.org/1999/xlink" width="200" height="200"><path d="M991.118222 117.646222c-13.596444-28.16-36.352-47.445333-62.350222-62.805333-46.136889-27.306667-96.881778-41.301333-149.731556-48.355556C762.083556 4.152889 745.073778 2.104889 728.064 0c-23.438222 0-46.876444 0-70.314667 0-2.616889 0.568889-5.176889 1.365333-7.850667 1.649778-51.882667 3.982222-102.684444 13.084444-151.04 32.938667C467.399111 47.502222 438.044444 63.886222 414.833778 89.429333 398.449778 107.52 388.039111 128.170667 386.901333 153.429333c1.991111 0.227556 3.584 0.625778 5.12 0.682667 50.858667 2.446222 100.750222 10.069333 149.390222 25.770667 6.485333 2.048 14.336 0.056889 21.504-0.056889C563.086222 178.801778 563.2 177.720889 563.370667 176.696889 551.822222 170.268444 538.510222 166.001778 531.683556 152.291556c6.485333-1.251556 11.889778-1.991111 17.123556-3.356444 11.036444-2.787556 19.797333-2.048 29.923556 6.314667 19.683556 16.327111 44.487111 19.854222 69.461333 18.887111 10.979556-0.455111 22.186667-2.901333 32.597333-6.371556 10.638222-3.584 10.865778-7.850667 2.787556-15.701333-6.030222-5.916444-12.686222-11.264-18.033778-17.692444-8.021333-9.671111-6.144-19.285333 5.006222-24.974222 7.68-3.925333 15.985778-7.168 24.348444-9.159111 26.851556-6.428444 54.101333-6.428444 81.180444-1.365333 12.856889 2.389333 25.088 2.787556 36.408889-3.527111 15.985778-8.931556 29.525333-1.649778 43.918222 5.859556-9.557333 3.299556-19.057778 6.599111-30.264889 10.524444 10.752 6.940444 22.584889 9.728 28.330667 21.447111-11.776 1.934222-22.698667 3.811556-33.678222 5.290667C819.2 138.695111 817.038222 137.614222 815.786667 136.419556c-11.207111-10.808889-25.201778-15.928889-39.879111-19.456-18.090667-4.323556-36.238222-4.209778-54.158222 1.024-12.629333 3.697778-13.425778 7.964444-4.039111 17.009778 5.632 5.518222 11.719111 10.695111 16.839111 16.611556 8.192 9.614222 6.599111 20.081778-4.494222 25.941333-8.362667 4.380444-17.351111 8.192-26.510222 10.296889-32.256 7.452444-64.853333 7.509333-97.336889 0.796444-9.955556-1.991111-18.432 0.512-27.704889 5.859556 2.730667 1.536 4.494222 2.730667 6.371556 3.640889 20.707556 10.069333 39.879111 22.584889 56.263111 38.741333 18.204444 18.033778 31.971556 38.684444 33.109333 65.422222 0.284444 6.144 3.640889 6.769778 8.590222 6.883556 68.152889 0.910222 134.883556-7.338667 198.883556-31.800889 26.737778-10.24 52.451556-22.698667 74.296889-41.870222 4.892444-4.380444 10.012444-8.476444 15.018667-12.743111 0.739556 0.227556 1.422222 0.512 2.104889 0.796444-0.853333 22.584889-0.910222 45.112889-2.787556 67.640889-2.56 30.890667-17.578667 55.523556-41.358222 75.036444-22.357333 18.375111-48.412444 29.184-75.889778 36.693333-41.415111 11.377778-83.911111 16.213333-126.862222 17.009778-16.782222 0.398222-33.564444 0.056889-50.403556 0.056889-0.512 3.185778-1.024 4.721778-1.024 6.371556-0.056889 4.323556 0.568889 8.760889 0.113778 13.084444-0.739556 7.054222 2.503111 8.476444 8.931556 8.647111 43.463111 0.625778 86.698667-1.877333 129.536-8.760889 34.474667-5.575111 68.209778-14.165333 99.669333-30.264889 22.243556-11.320889 41.642667-26.168889 58.595556-46.819556 0 17.521778 0.682667 33.166222-0.113778 48.810667-1.706667 34.133333-15.473778 62.293333-42.097778 84.252444-23.495111 19.285333-50.858667 30.151111-79.701333 38.001778-45.568 12.458667-92.330667 15.644444-139.264 16.384-11.605333 0.170667-23.210667 0-35.441778 0 0 7.338667 0.455111 13.312-0.113778 19.171556-0.682667 7.168 2.616889 8.476444 9.045333 8.590222 61.553778 0.455111 122.595556-3.185778 182.101333-20.366222 29.468444-8.476444 57.400889-20.536889 81.009778-40.732444 8.362667-7.111111 16.042667-15.018667 24.632889-23.04 0 15.587556 0.455111 30.435556-0.056889 45.283556-1.536 41.073778-20.081778 72.647111-54.272 95.288889-28.956444 19.228444-61.44 28.956444-95.004444 35.384889-43.235556 8.362667-87.04 10.524444-131.015111 10.695111-18.602667 0.113778-16.099556-3.925333-17.464889 16.668444-0.512 7.793778 1.763556 10.524444 9.784889 10.581333 55.239111 0.284444 110.08-2.901333 163.953778-15.644444 33.336889-7.964444 65.365333-19.456 92.956444-40.448 10.922667-8.305778 20.536889-18.261333 31.175111-27.761778 0.170667 2.161778 0.512 4.494222 0.512 6.826667-0.170667 16.327111 0.682667 32.768-0.853333 48.981333-1.365333 14.222222-3.584 28.899556-8.533333 42.211556-14.848 40.049778-47.331556 61.895111-85.162667 76.8-39.708444 15.644444-81.521778 21.731556-123.790222 24.519111-23.893333 1.536-47.957333 1.308444-71.850667 2.275556-2.503111 0.056889-6.769778 2.161778-7.054222 3.868444-1.194667 7.452444-1.194667 15.018667-1.649778 22.983111 3.697778 0.170667 6.371556 0.568889 8.988444 0.455111 29.923556-1.194667 59.960889-1.479111 89.827556-3.925333 51.655111-4.152889 101.944889-14.392889 147.854222-40.049778 22.414222-12.572444 41.528889-28.899556 55.637333-50.574222 15.758222-24.177778 23.210667-50.972444 23.438222-79.644444 0.398222-49.038222 0.284444-98.133333 0.284444-147.114667 0.056889-124.643556 0.056889-249.173333 0.056889-373.816889C999.708444 143.416889 997.205333 130.218667 991.118222 117.646222z" p-id="15215"></path><path d="M546.645333 215.608889C504.547556 194.673778 459.548444 183.182222 413.013333 177.322667c-94.151111-11.946667-186.538667-6.200889-275.854222 28.501333C109.624889 216.519111 84.024889 230.855111 62.065778 250.993778c-24.860444 22.812444-38.684444 50.119111-37.774222 84.992C25.543111 379.050667 24.632889 422.115556 24.632889 465.180444c0 89.941333-0.056889 179.825778 0.056889 269.653333 0 37.888-0.170667 75.832889 0.455111 113.664 0.170667 11.548444 1.763556 23.438222 4.608 34.702222 13.255111 52.679111 49.436444 85.105778 97.052444 106.382222 49.777778 22.243556 102.968889 29.354667 156.672 32.824889 44.942222 2.901333 89.827556 1.877333 134.656-3.128889 49.948444-5.575111 98.474667-15.758222 142.563556-41.073778 21.219556-12.174222 39.310222-28.16 52.792889-48.924444 16.270222-24.917333 23.552-52.679111 23.893333-82.033778 0.682667-55.523556 0.455111-111.047111 0.512-166.627556 0.056889-54.499556 0-108.999111 0-163.498667 0-61.610667 0-123.164444 0-184.832 0-16.896-3.413333-32.938667-11.605333-47.900444C608.256 251.676444 578.958222 231.594667 546.645333 215.608889zM169.187556 323.470222C181.475556 321.479111 192.625778 319.544889 203.832889 317.838222c1.251556-0.170667 3.128889 0.853333 4.039111 1.934222 14.791111 16.497778 34.872889 21.617778 55.466667 24.803556 15.701333 2.389333 31.459556 1.991111 46.933333-2.503111 2.332444-0.625778 4.721778-1.251556 6.940444-2.161778C328.817778 334.791111 329.386667 331.093333 320.170667 322.616889c-5.347556-5.006222-10.922667-9.784889-15.701333-15.36-10.24-11.889778-8.192-22.584889 6.599111-28.046222 13.141333-4.892444 27.079111-9.614222 40.846222-10.296889 22.129778-1.194667 44.487111 0.455111 66.673778 2.161778 8.817778 0.739556 17.464889 2.048 25.429333-2.161778C461.312 259.697778 477.866667 261.688889 495.104 272.042667 484.977778 275.683556 475.249778 279.096889 464.952889 282.737778c9.784889 6.712889 18.659556 12.8 27.648 18.944-0.284444 1.024-0.568889 2.048-0.910222 3.072-11.662222 1.706667-23.324444 3.413333-34.986667 5.006222C455.623111 309.873778 454.200889 308.736 453.176889 307.939556c-26.112-21.674667-56.149333-25.6-88.348444-19.911111C363.747556 288.199111 362.496 288.199111 361.642667 288.654222 357.376 291.328 353.223111 294.115556 349.013333 296.789333 351.630222 300.430222 353.905778 304.355556 356.864 307.655111c5.12 5.632 10.979556 10.581333 15.985778 16.270222C379.448889 331.434667 379.335111 340.366222 371.256889 345.998222 363.804444 351.175111 355.271111 355.555556 346.510222 357.944889c-32.312889 8.817778-65.194667 9.102222-97.962667 3.072C238.819556 359.253333 229.831111 358.798222 220.899556 363.235556 218.965333 364.202667 216.632889 364.430222 214.755556 365.454222 198.997333 373.873778 184.888889 367.047111 168.334222 360.448c11.889778-4.152889 21.731556-7.566222 33.166222-11.548444C189.952 341.276444 175.957333 337.806222 169.187556 323.470222zM163.271111 456.476444c40.732444 13.312 82.887111 20.195556 125.781333 22.983111 40.96 2.673778 81.806222 1.877333 122.368-3.811556C474.453333 466.887111 535.267556 450.730667 587.662222 412.046222c7.395556-5.461333 13.994667-12.003556 21.674667-18.659556 0.341333 2.446222 0.796444 4.152889 0.796444 5.802667-0.284444 19.854222 0.398222 39.879111-1.308444 59.619556-3.413333 39.708444-23.836444 69.006222-57.571556 89.827556-33.166222 20.366222-69.745778 29.696-107.633778 35.612444-61.496889 9.614222-123.221333 9.671111-185.002667 4.551111-38.912-3.185778-77.312-9.784889-113.720889-24.348444-30.833778-12.288-58.254222-29.582222-76.060444-58.936889-8.590222-14.165333-14.620444-29.354667-15.132444-46.08C53.020444 437.816889 53.475556 416.085333 53.475556 393.557333 84.081778 425.585778 122.766222 443.221333 163.271111 456.476444zM76.686222 555.975111c28.046222 23.836444 61.212444 37.262222 96.426667 45.909333 75.946667 18.773333 152.974222 20.935111 230.513778 14.620444 38.627556-3.185778 76.8-9.386667 113.607111-21.959111 33.962667-11.605333 64.739556-28.387556 88.234667-56.433778 0.853333-1.080889 1.991111-1.820444 4.437333-3.982222 0.682667 38.172444 2.673778 74.752-19.285333 107.178667-16.213333 23.893333-39.082667 39.025778-64.853333 50.289778-34.019556 14.961778-70.144 21.902222-106.837333 25.713778-47.502222 4.892444-95.175111 5.518222-142.848 2.332444-46.364444-3.072-92.103111-9.557333-135.452444-27.477333C117.76 682.666667 97.166222 669.866667 80.497778 651.036444c-17.92-20.195556-26.737778-43.975111-27.932444-70.599111-0.682667-15.701333-0.113778-31.345778-0.113778-48.355556C61.041778 540.615111 68.380444 548.920889 76.686222 555.975111zM607.345778 868.465778c-4.949333 36.352-25.372444 63.544889-56.206222 83.114667-33.109333 20.935111-69.916444 30.549333-108.145778 36.693333-61.781333 9.898667-123.790222 10.069333-185.856 4.437333-44.600889-4.039111-88.519111-12.174222-129.024-32.768-37.148444-18.944-65.422222-46.307556-72.590222-88.746667-4.380444-25.884444-3.584-52.565333-5.176889-78.791111 1.024-0.227556 1.934222-0.512 2.958222-0.739556 41.927111 50.744889 100.181333 68.494222 161.507556 78.108444 84.650667 13.255111 169.472 12.8 253.781333-3.128889 41.756444-7.850667 81.863111-20.935111 115.541333-48.526222 8.760889-7.111111 16.554667-15.587556 25.429333-24.007111 0.227556 2.901333 0.568889 5.12 0.512 7.452444C609.393778 823.921778 610.360889 846.392889 607.345778 868.465778zM580.266667 784.213333c-17.976889 19.512889-40.277333 32.369778-64.796444 41.301333C455.111111 847.530667 392.078222 852.024889 328.704 850.887111c-37.774222-0.625778-75.548444-4.380444-113.095111-8.760889-31.744-3.697778-62.350222-13.027556-90.908444-27.818667-35.100444-18.204444-62.065778-44.202667-69.233778-84.707556-3.868444-21.731556-3.356444-44.316444-4.892444-66.503111 1.194667-0.568889 2.389333-1.137778 3.584-1.763556 7.68 8.248889 14.734222 17.123556 23.096889 24.519111 23.324444 20.48 51.2 32.995556 80.668444 41.585778 74.752 21.902222 151.438222 23.552 228.522667 19.911111 41.528889-1.934222 82.545778-8.021333 122.254222-20.252444 37.034667-11.377778 71.224889-28.501333 96.654222-59.392 0.910222-1.194667 2.332444-1.991111 4.266667-3.584C611.612444 707.868444 611.84 749.909333 580.266667 784.213333z" p-id="15216"></path></svg>