<?xml version="1.0" standalone="no"?><!DOCTYPE svg PUBLIC "-//W3C//DTD SVG 1.1//EN" "http://www.w3.org/Graphics/SVG/1.1/DTD/svg11.dtd"><svg t="1703832553829" class="icon" viewBox="0 0 1024 1024" version="1.1" xmlns="http://www.w3.org/2000/svg" p-id="12574" xmlns:xlink="http://www.w3.org/1999/xlink" width="200" height="200"><path d="M522.671722 876.521739l-30.608696 77.913044h27.826087l-25.043478 64 77.913043-91.826087h-33.391304l36.173913-50.086957z"  p-id="12575"></path><path d="M597.162157 465.836522H509.788243l-89.766956 206.970435h87.290435l-57.349565 174.525217 192-249.349565h-102.149566z"  p-id="12576"></path><path d="M868.939548 213.286957h-114.699131v-23.40174h25.043479V38.956522h-25.043479V0h-84.75826v38.956522h-25.043479v153.516521h25.043479v23.40174h-117.203479v-25.989566h25.043479V38.956522h-25.043479V0H467.492591v38.956522h-25.043478v153.516521h25.043478v23.40174h-117.203478v-25.989566h25.043478V38.956522h-25.043478V0H263.026504v38.956522h-25.043478v153.516521h25.043478v23.40174H148.327374c-67.33913-2.587826-119.652174 54.622609-119.652174 122.24v559.304347c0 67.617391 52.34087 124.827826 119.652174 124.827827h720.695652c64.834783 0 119.652174-54.594783 119.652174-124.827827v-559.304347c-0.027826-67.617391-52.396522-124.827826-119.735652-124.827826zM285.482157 17.613913h37.39826V22.817391H285.482157z m37.39826 179.450435H285.482157V192h37.39826z m25.043479-36.396522H260.522157v-13.022609h87.290434z m0-44.215652H260.522157v-13.022609h87.290434z m0-46.831304H260.522157v-12.994783h87.290434z m142.024347-52.006957h37.398261V22.817391h-37.398261z m-25.043478 38.956522h87.262609V69.565217h-87.151304z m0 57.210435v-10.351305h87.262609v13.022609h-87.151304z m0 46.831304v-12.966957h87.262609v13.022609z m62.330435 36.396522h-37.286957V192h37.398261z m166.956522-179.450435h37.398261V22.817391h-37.175653z m-25.043479 38.956522h87.262609V69.565217h-86.928695z m0 57.210434v-10.295652h87.262609v13.022609h-86.928695z m0 33.808696h87.262609v13.022609h-86.928695z m62.330435 49.41913h-37.064348V192h37.398261z"  p-id="12577"></path><path d="M911.346504 899.70087A39.401739 39.401739 0 0 1 871.527374 939.603478H148.327374a39.373913 39.373913 0 0 1-39.902609-39.902608V363.603478a39.401739 39.401739 0 0 1 39.902609-39.902608h720.695652a39.401739 39.401739 0 0 1 39.902609 39.902608v536.097392z"  p-id="12578"></path><path d="M28.396939 214.26087m70.511304 0l818.977392 0q70.511304 0 70.511304 70.511304l0 668.716522q0 70.511304-70.511304 70.511304l-818.977392 0q-70.511304 0-70.511304-70.511304l0-668.716522q0-70.511304 70.511304-70.511304Z"  p-id="12579"></path><path d="M78.483896 267.130435m14.08 0l828.883478 0q14.08 0 14.08 14.08l0 572.883478q0 14.08-14.08 14.08l-828.883478 0q-14.08 0-14.08-14.08l0-572.883478q0-14.08 14.08-14.08Z"  p-id="12580"></path><path d="M489.280417 876.521739l-30.608695 77.913044h27.826087l-25.043479 64 77.913044-91.826087h-33.391304l36.173913-50.086957z"  p-id="12581"></path><path d="M100.369631 289.957831m8.932166-0.012472l794.656616-1.109551q8.932165-0.012472 8.944637 8.919694l0.752107 538.656866q0.012472 8.932165-8.919693 8.944637l-794.656617 1.109551q-8.932165 0.012472-8.944637-8.919694l-0.752107-538.656866q-0.012472-8.932165 8.919694-8.944637Z"  p-id="12582"></path><path d="M214.831722 372.869565m25.043478 0l0 0q25.043478 0 25.043478 25.043478l0 336.695653q0 25.043478-25.043478 25.043478l0 0q-25.043478 0-25.043478-25.043478l0-336.695653q0-25.043478 25.043478-25.043478Z"  p-id="12583"></path><path d="M349.788243 372.869565m24.876522 0l0.333913 0q24.876522 0 24.876522 24.876522l0 337.029565q0 24.876522-24.876522 24.876522l-0.333913 0q-24.876522 0-24.876522-24.876522l0-337.029565q0-24.876522 24.876522-24.876522Z"  p-id="12584"></path><path d="M484.744765 372.869565m25.043478 0l0 0q25.043478 0 25.043479 25.043478l0 336.695653q0 25.043478-25.043479 25.043478l0 0q-25.043478 0-25.043478-25.043478l0-336.695653q0-25.043478 25.043478-25.043478Z"  p-id="12585"></path><path d="M619.701287 372.869565m25.043478 0l0 0q25.043478 0 25.043478 25.043478l0 336.695653q0 25.043478-25.043478 25.043478l0 0q-25.043478 0-25.043478-25.043478l0-336.695653q0-25.043478 25.043478-25.043478Z"  p-id="12586"></path><path d="M754.657809 375.652174m25.043478 0l0 0q25.043478 0 25.043478 25.043478l0 336.695652q0 25.043478-25.043478 25.043479l0 0q-25.043478 0-25.043478-25.043479l0-336.695652q0-25.043478 25.043478-25.043478Z"  p-id="12587"></path></svg>